<?xml version="1.0" encoding="UTF-8"?>
<svg version="1.1" xmlns="http://www.w3.org/2000/svg" width="3200" height="1338">
<path d="M0 0 C1056 0 2112 0 3200 0 C3200 441.54 3200 883.08 3200 1338 C2144 1338 1088 1338 0 1338 C0 896.46 0 454.92 0 0 Z " fill="#010202" transform="translate(0,0)"/>
<path d="M0 0 C0.93972656 0.70382812 1.87945313 1.40765625 2.84765625 2.1328125 C7.51023669 5.71941284 11.54839868 9.43008862 15.30078125 13.9609375 C16.4452032 15.33424385 17.63196878 16.67321306 18.85546875 17.9765625 C28.98680174 28.7752288 36.43969149 41.33390594 42 55 C42.26796387 55.65693848 42.53592773 56.31387695 42.81201172 56.99072266 C55.80653495 89.57505821 53.88627474 121.94154771 44 155 C44.82564453 154.63648438 44.82564453 154.63648438 45.66796875 154.265625 C75.65380303 142.17831196 112.30496038 143.80322761 142 156 C147.47161244 158.41015881 152.74994914 161.14505645 158 164 C159.31484375 164.68642578 159.31484375 164.68642578 160.65625 165.38671875 C189.08941681 181.16712633 211.78581781 210.96663439 221 242 C221.21430664 242.68868164 221.42861328 243.37736328 221.64941406 244.08691406 C225.32995596 256.28542777 226.48632387 268.19614638 226.5 280.875 C226.5043103 281.55798157 226.50862061 282.24096313 226.51306152 282.94464111 C226.55027201 296.69887556 224.31372489 309.83671239 220.3125 323 C220.05976318 323.83394287 219.80702637 324.66788574 219.54663086 325.52709961 C213.03234437 346.08029026 200.55036824 363.35389475 186 379 C185.39800781 379.66773438 184.79601562 380.33546875 184.17578125 381.0234375 C173.715441 392.14180349 160.79749597 399.78213403 147 406 C145.94941406 406.48210937 144.89882813 406.96421875 143.81640625 407.4609375 C136.4052359 410.70886076 128.84155828 413.03119674 121 415 C119.88109375 415.30164063 118.7621875 415.60328125 117.609375 415.9140625 C93.10503606 421.58930983 66.38134719 418.93433592 43 410 C43.25394531 410.58265625 43.50789063 411.1653125 43.76953125 411.765625 C46.55098779 418.39111699 48.49766794 424.97726435 50 432 C50.20753906 432.91523437 50.41507813 433.83046875 50.62890625 434.7734375 C53.91229716 451.90217611 52.89621182 470.0860711 49 487 C48.80664062 488.00160156 48.61328125 489.00320313 48.4140625 490.03515625 C41.7640955 521.42818229 20.1643008 551.32928759 -6.22265625 569.21875 C-37.78189239 589.45927276 -74.16049177 598.66782588 -111.5 591 C-134.0146344 585.94144968 -153.39866392 575.77730191 -171 561 C-172.37865234 559.85337891 -172.37865234 559.85337891 -173.78515625 558.68359375 C-179.95547675 553.35251314 -185.03412858 547.45200813 -190 541 C-190.64453125 540.2059375 -191.2890625 539.411875 -191.953125 538.59375 C-210.26083906 515.07652381 -218.17301105 486.69155497 -218.1875 457.25 C-218.19974609 455.95578125 -218.21199219 454.6615625 -218.22460938 453.328125 C-218.24121332 442.34738234 -216.71628576 432.11049125 -214 421.5 C-213.835 420.82453125 -213.67 420.1490625 -213.5 419.453125 C-212.64641141 416.06544529 -211.62183759 413.08487025 -210 410 C-210.56283691 410.17128418 -211.12567383 410.34256836 -211.70556641 410.51904297 C-214.34233478 411.31485588 -216.98354232 412.09489917 -219.625 412.875 C-220.50929688 413.14441406 -221.39359375 413.41382813 -222.3046875 413.69140625 C-243.29186061 419.8376498 -268.85044163 421.13097263 -290 415 C-290.79776855 414.77425293 -291.59553711 414.54850586 -292.41748047 414.31591797 C-327.80859994 404.04620304 -357.75173517 381.21082543 -376.11816406 349.04150391 C-381.56419377 339.13446982 -385.76668447 328.82552936 -389 318 C-389.21172852 317.30696777 -389.42345703 316.61393555 -389.64160156 315.89990234 C-395.58343599 295.58372521 -395.06464039 271.43549221 -390 251 C-389.63455078 249.21335937 -389.63455078 249.21335937 -389.26171875 247.390625 C-381.3182206 212.30370425 -356.35658793 184.16400707 -326.96484375 165.0234375 C-316.51344 158.63725001 -304.88272285 153.95868604 -293 151 C-292.38785645 150.83226074 -291.77571289 150.66452148 -291.14501953 150.49169922 C-279.71447309 147.42260958 -268.47023065 146.59734593 -256.6875 146.5625 C-256.02071228 146.55650787 -255.35392456 146.55051575 -254.66693115 146.54434204 C-240.94258351 146.46221468 -228.51006546 148.96163902 -215.51171875 153.23046875 C-213.11911571 154.09764541 -213.11911571 154.09764541 -211 154 C-211.433125 152.9275 -211.86625 151.855 -212.3125 150.75 C-221.96367902 124.75555086 -221.57016922 95.39192595 -214 69 C-213.67104736 67.83718506 -213.67104736 67.83718506 -213.33544922 66.65087891 C-206.85220056 44.52041887 -193.69864321 26.51854162 -178 10 C-177.12794922 9.03126953 -177.12794922 9.03126953 -176.23828125 8.04296875 C-131.09879444 -40.50756241 -49.89561184 -38.28507642 0 0 Z " fill="#FBFBFB" transform="translate(671,403)"/>
<path d="M0 0 C1.67965949 0.38944375 3.35934706 0.77876639 5.0390625 1.16796875 C33.14785984 7.93880211 60.56890642 19.54429221 83.24853516 37.60693359 C84.79169321 38.83431857 86.35347631 40.03820873 87.91796875 41.23828125 C129.19571191 73.61417729 152.57573362 123.50991333 159.125 174.8125 C165.00165053 227.28463762 153.55640238 284.52980591 121 327 C120.33484375 327.87398437 119.6696875 328.74796875 118.984375 329.6484375 C104.09792393 348.69606191 87.35169965 364.01877804 67 377 C65.93007812 377.70769531 64.86015625 378.41539062 63.7578125 379.14453125 C42.57557733 392.80534162 16.73192187 401.55323245 -8 406 C-9.39508789 406.26961548 -9.39508789 406.26961548 -10.81835938 406.54467773 C-21.72943456 408.39811651 -32.61068045 408.30283768 -43.64941406 408.26074219 C-46.99302301 408.25002237 -50.33609483 408.26068693 -53.6796875 408.2734375 C-64.62557893 408.28178584 -75.23290175 408.15272634 -86 406 C-87.05767578 405.79213867 -88.11535156 405.58427734 -89.20507812 405.37011719 C-92.39872686 404.70792469 -95.5743069 403.99334562 -98.75 403.25 C-100.43270996 402.85639282 -100.43270996 402.85639282 -102.14941406 402.45483398 C-117.04776585 398.88370546 -130.47417009 394.16459112 -144 387 C-145.97843266 386.06095199 -147.95758242 385.1234131 -149.9375 384.1875 C-166.08880915 376.09036762 -180.93013822 364.36511433 -194 352 C-194.80953125 351.24332031 -195.6190625 350.48664063 -196.453125 349.70703125 C-203.39075457 343.0202908 -209.2383231 335.69194267 -215 328 C-215.43344727 327.42733398 -215.86689453 326.85466797 -216.31347656 326.26464844 C-229.87226435 308.26507496 -239.32579453 288.50944436 -246 267 C-246.32355469 266.05769531 -246.64710937 265.11539062 -246.98046875 264.14453125 C-249.12158789 257.54069636 -250.59034006 250.79075248 -252 244 C-252.23517334 242.89664307 -252.23517334 242.89664307 -252.47509766 241.77099609 C-258.2145129 213.39726721 -257.44870821 180.16351479 -251 152 C-250.75975098 150.9495752 -250.75975098 150.9495752 -250.51464844 149.87792969 C-249.5465704 145.84324351 -248.32108652 141.93103794 -247 138 C-246.55160393 136.5760806 -246.10511466 135.15155987 -245.66015625 133.7265625 C-239.15457226 113.19626736 -230.24150796 94.091101 -217 77 C-216.42636719 76.23429688 -215.85273437 75.46859375 -215.26171875 74.6796875 C-211.46281767 69.6668847 -207.37082592 64.98746974 -203.11328125 60.359375 C-201.67472528 58.75329773 -200.28883246 57.09882586 -198.953125 55.40625 C-196.02039485 51.79312646 -192.55128329 48.98768372 -189 46 C-188.26523438 45.35417969 -187.53046875 44.70835937 -186.7734375 44.04296875 C-173.01401147 32.27101537 -157.50628038 22.41592896 -141 15 C-139.82179688 14.45988281 -138.64359375 13.91976563 -137.4296875 13.36328125 C-124.80871385 7.75866544 -111.7449652 3.456198 -98.25439453 0.50146484 C-96.7410236 0.16483241 -95.23144622 -0.18929164 -93.72607422 -0.56005859 C-64.62398895 -7.59291366 -29.0128842 -7.26793347 0 0 Z " fill="#FEFEFD" transform="translate(1586,483)"/>
<path d="M0 0 C19.25385154 -0.35089644 38.50705176 -0.61514902 57.76344109 -0.77718258 C66.70536246 -0.85442978 75.64529387 -0.95967005 84.5859375 -1.1315918 C92.38170697 -1.28142661 100.17603535 -1.37794562 107.97320473 -1.41132742 C112.10012119 -1.43083535 116.22291656 -1.47642074 120.34850693 -1.58595085 C145.39230741 -2.22530153 145.39230741 -2.22530153 151.31027985 1.42502975 C154.77652363 4.78226514 156.62571737 8.5102259 158.20660305 13.01699352 C159.58118487 16.45260624 161.74898263 19.36738838 163.875 22.375 C164.33608154 23.06956299 164.79716309 23.76412598 165.2722168 24.47973633 C168.81561465 29.77271113 172.48896994 34.96849921 176.17822266 40.16040039 C184.40020788 51.75922575 192.38605567 63.53073959 200.25 75.375 C203.39130021 80.10072794 206.55781878 84.8085247 209.75 89.5 C210.21051758 90.18368652 210.67103516 90.86737305 211.14550781 91.57177734 C213.51998432 95.04689559 215.8762968 98.13903819 219 101 C219.25571777 100.30801514 219.51143555 99.61603027 219.77490234 98.90307617 C221.15928417 95.62254921 222.82317 92.63592499 224.6015625 89.55078125 C224.95296295 88.94107986 225.3043634 88.33137848 225.66641235 87.70320129 C229.12315874 81.73355149 232.69546914 75.83514637 236.29595947 69.95132446 C238.16570877 66.89498925 240.02840262 63.83436299 241.890625 60.7734375 C242.25362701 60.1768483 242.61662903 59.58025909 242.9906311 58.96559143 C246.1275218 53.80346253 249.20180217 48.60725806 252.24682617 43.390625 C256.61827714 35.91307017 261.09163285 28.49669359 265.56103516 21.07739258 C266.16351074 20.07603271 266.76598633 19.07467285 267.38671875 18.04296875 C267.91483154 17.16664795 268.44294434 16.29032715 268.98706055 15.38745117 C271.01223929 12.1517944 271.01223929 12.1517944 272.23516655 9.09208775 C276.19864821 0.67046588 276.19864821 0.67046588 280.93836308 -1.09366322 C284.65973644 -1.47945882 288.28374629 -1.48710959 292.01342773 -1.36230469 C293.43315848 -1.35891613 294.85291022 -1.36082703 296.27262878 -1.36761475 C300.11279432 -1.37104827 303.94843143 -1.3006884 307.78754687 -1.21672726 C311.80450416 -1.14153273 315.82157412 -1.13464914 319.83912659 -1.12042236 C327.44015808 -1.08317447 335.03910994 -0.98477756 342.63922697 -0.86422849 C351.29431083 -0.72993663 359.94949589 -0.66408144 368.60536277 -0.60388327 C386.40475279 -0.47856669 404.20220902 -0.26760172 422 0 C420.60659201 3.59891174 419.07078775 6.62523337 416.90234375 9.82421875 C415.96080444 11.22293213 415.96080444 11.22293213 415.00024414 12.64990234 C414.31953857 13.65230957 413.63883301 14.6547168 412.9375 15.6875 C411.47553606 17.8599867 410.01463358 20.03318801 408.5546875 22.20703125 C408.17830643 22.76664551 407.80192535 23.32625977 407.41413879 23.90283203 C403.41189259 29.85974293 399.4830923 35.86409424 395.5625 41.875 C394.86366699 42.94556641 394.16483398 44.01613281 393.44482422 45.11914062 C392.02013912 47.30233106 390.5958243 49.48576317 389.171875 51.66943359 C385.47151499 57.34392902 381.76795158 63.01632828 378.0625 68.6875 C376.994552 70.32223267 376.994552 70.32223267 375.9050293 71.98999023 C371.69839202 78.42259655 367.46122308 84.8331103 363.18188477 91.2175293 C360.33311552 95.47556624 357.57955079 99.78752108 354.84765625 104.12109375 C352.16937428 108.29423077 349.39137622 112.39927069 346.62548828 116.51464844 C344.26957608 120.03816405 342.01195635 123.58747809 339.875 127.25 C337.84782842 130.70411917 335.642378 133.91292277 333.25 137.125 C329.54286812 142.13103226 326.25167119 147.31201227 322.98876953 152.6105957 C319.33686175 158.51858015 315.49853192 164.28685784 311.62011719 170.04785156 C307.27972165 176.52076298 303.11299782 183.09535245 299.00830078 189.7199707 C296.53817978 193.68094658 294.02396646 197.42686982 291 201 C292.48044529 205.4662872 294.96625372 208.81216754 297.875 212.4375 C301.11520367 216.51900284 304.14545364 220.63185345 307 225 C311.93769553 232.22402148 316.96466148 239.38062564 322.06152344 246.49291992 C325.35189129 251.08598688 328.61857005 255.69531553 331.875 260.3125 C332.37604248 261.022854 332.87708496 261.73320801 333.39331055 262.46508789 C335.44303299 265.37188961 337.49200794 268.27921786 339.54101562 271.18652344 C345.07382837 279.03580607 350.61580756 286.87773774 356.20703125 294.68554688 C359.53509236 299.33738948 362.83171991 304.01099077 366.125 308.6875 C369.48802301 313.46210977 372.86829036 318.22086474 376.3125 322.9375 C380.74464372 329.00780773 385.11485217 335.11295652 389.23828125 341.3984375 C394.14513593 348.8711434 399.25664035 356.10244433 404.66967773 363.21801758 C408.35825866 368.08622875 411.78911507 373.07874026 415.1328125 378.19140625 C419.76629817 385.16102172 424.815684 391.84931916 429.96875 398.44140625 C431 400 431 400 431 402 C411.89389572 402.37441566 392.78853945 402.6562187 373.67952251 402.82899475 C364.80585002 402.91136632 355.93446162 403.02356954 347.06225586 403.20703125 C339.32543834 403.36693831 331.59027492 403.46982724 323.85185081 403.50541592 C319.75649187 403.52621182 315.66586279 403.57474237 311.57202721 403.69168091 C286.71413207 404.37458343 286.71413207 404.37458343 280.59592056 400.46298218 C276.89793532 396.84524282 274.76407058 392.80365189 272.88922691 388.02957726 C271.43703042 384.7150746 269.31392269 382.05840234 267.125 379.1875 C263.12136328 373.62052481 259.23362124 367.98092194 255.375 362.3125 C251.98023815 357.32574219 248.58010396 352.35655453 245 347.5 C240.16867482 340.94539959 235.6308943 334.18930008 231.046875 327.4609375 C228.78554504 324.14331029 226.50210132 320.8432881 224.1875 317.5625 C220.35046695 312.11391307 216.67872987 306.55615062 213 301 C212.01 299.515 212.01 299.515 211 298 C210.34 298 209.68 298 209 298 C207.64297608 299.87630863 207.64297608 299.87630863 206.3125 302.3125 C203.53189664 307.11040384 200.61072793 311.79203952 197.61328125 316.45703125 C196.03291118 318.94812306 194.51152647 321.46665078 193 324 C185.62363924 336.14189873 185.62363924 336.14189873 181.8125 341.75 C179.45300865 345.24179417 177.40129717 348.82474779 175.38671875 352.5234375 C171.56658822 359.34586779 167.31676411 365.9276304 163.1328125 372.53125 C162.62564697 373.33191895 162.11848145 374.13258789 161.59594727 374.95751953 C160.61663118 376.50141188 159.63552735 378.04417265 158.65209961 379.58544922 C157.94452515 380.69944092 157.94452515 380.69944092 157.22265625 381.8359375 C156.46451378 382.94448341 156.46451378 382.94448341 155.6910553 384.07542419 C153.84088493 387.02650324 153.84088493 387.02650324 152.83947754 390.73405457 C151.19158679 395.44912425 149.22226146 399.1580809 145 402 C135.59765545 404.71548845 125.10991795 403.79076265 115.41352344 403.52090907 C111.4581145 403.42674011 107.50251472 403.41829835 103.54615784 403.40052795 C96.06501629 403.35401664 88.58718688 403.23109685 81.10750014 403.08028561 C72.5879717 402.91226056 64.06827972 402.83006339 55.54750526 402.75485408 C38.02975834 402.59832031 20.51522997 402.33471999 3 402 C5.05139707 397.85326126 7.42334073 393.98301052 9.875 390.0625 C10.52662109 389.00772461 10.52662109 389.00772461 11.19140625 387.93164062 C13.05824404 384.94077588 14.90827781 382.11305684 17.1328125 379.37109375 C19.21764605 376.72361684 20.51438954 374.02061463 22 371 C23.45137329 368.74445024 24.92241939 366.5238371 26.4375 364.3125 C30.42100145 358.42012903 34.27782124 352.45943025 38.0625 346.4375 C38.57224365 345.62716309 39.0819873 344.81682617 39.60717773 343.98193359 C40.60820192 342.39038061 41.60910063 340.7987487 42.60986328 339.20703125 C50.71386407 326.34082697 59.1454754 313.69492476 67.63671875 301.08203125 C73.62271008 292.17397384 79.34528829 283.1212206 85 274 C88.53161586 268.30735431 92.13395218 262.75844696 96.125 257.375 C99.05957908 253.40568495 101.54192959 249.41043815 103.8515625 245.0546875 C105.31723669 242.43242687 107.04668714 240.07389459 108.828125 237.66015625 C110.31793817 235.54958759 111.53782062 233.30604741 112.79296875 231.05078125 C115.2766465 226.83094041 118.08236035 222.81187982 120.81884766 218.75341797 C122.99131104 215.52840102 125.15207805 212.2955901 127.3125 209.0625 C127.73289551 208.43601562 128.15329102 207.80953125 128.58642578 207.1640625 C129.37615389 205.98280453 130.1609447 204.7982256 130.93994141 203.60986328 C131.89251481 202.16323292 132.87234607 200.73463907 133.85546875 199.30859375 C135.19565021 197.14436029 135.19565021 197.14436029 134.75366211 195.1315918 C133.86195079 192.60955372 132.6385774 190.76504033 131.0859375 188.5859375 C130.48910156 187.74160156 129.89226563 186.89726563 129.27734375 186.02734375 C128.33568359 184.71443359 128.33568359 184.71443359 127.375 183.375 C126.15364583 181.65364583 124.93229167 179.93229167 123.7109375 178.2109375 C122.79042603 176.92026367 122.79042603 176.92026367 121.85131836 175.60351562 C119.43611568 172.20700747 117.04838004 168.79167521 114.66113281 165.37548828 C112.17961265 161.82681232 109.6848108 158.28757459 107.1875 154.75 C106.4150293 153.65558594 106.4150293 153.65558594 105.62695312 152.5390625 C102.43173667 148.01611738 99.22305839 143.50313831 96 139 C90.81110479 131.75014863 85.6726671 124.4650807 80.53662109 117.17773438 C79.01254718 115.01778215 77.48530386 112.86010802 75.95703125 110.703125 C70.53181635 103.04147512 65.16340649 95.34597182 59.86303711 87.59741211 C56.68697812 82.96654661 53.41057085 78.42010359 50.0859375 73.89453125 C47.54153882 70.36382073 45.08135258 66.77977748 42.625 63.1875 C34.82175224 51.78398963 26.7164497 40.60436529 18.61914062 29.40869141 C15.22817307 24.71529323 11.85981104 20.00873676 8.56640625 15.24609375 C7.40444721 13.579943 6.22139784 11.92845841 5.02734375 10.28515625 C4.37894531 9.38667969 3.73054688 8.48820312 3.0625 7.5625 C2.47597656 6.75941406 1.88945312 5.95632813 1.28515625 5.12890625 C0 3 0 3 0 0 Z " fill="#FDFDFD" transform="translate(2304,485)"/>
<path d="M0 0 C1.63748199 -0.00855011 1.63748199 -0.00855011 3.30804443 -0.01727295 C5.61420741 -0.02668049 7.92038358 -0.03323995 10.2265625 -0.03710938 C13.68254452 -0.04673071 17.13790927 -0.07776068 20.59375 -0.109375 C64.60180646 -0.31840611 109.9884184 11.29147069 142.06982422 42.78808594 C165.39803243 66.12434669 174.46282049 95.85825282 176.484375 128.203125 C131.604375 128.203125 86.724375 128.203125 40.484375 128.203125 C39.494375 122.263125 39.494375 122.263125 38.484375 116.203125 C35.73334475 108.80380226 32.71067119 102.60408981 25.421875 98.828125 C18.59717166 96.10961817 11.0145711 96.10311722 4.046875 98.390625 C-0.92751558 100.9214553 -4.45909446 103.96344283 -6.515625 109.203125 C-7.49479705 117.29070954 -7.5846623 124.41768266 -2.609375 131.17578125 C3.27784561 136.87628032 9.83482547 140.66305525 17.234375 144.078125 C18.15049561 144.50738281 19.06661621 144.93664062 20.01049805 145.37890625 C27.65151213 148.91450635 35.41318367 152.07989814 43.25390625 155.140625 C49.03648674 157.40198166 54.75953453 159.80006622 60.484375 162.203125 C66.98686998 164.93154197 73.49797645 167.62082515 80.06445312 170.19165039 C96.57500317 176.66627792 113.63318491 183.39533039 128.484375 193.203125 C129.58265625 193.92628906 130.6809375 194.64945313 131.8125 195.39453125 C156.2980169 211.97853688 172.83481136 234.73086236 179.59765625 263.6796875 C180.93289181 270.65207123 180.83433523 277.69498165 180.796875 284.765625 C180.79414078 285.83052155 180.79414078 285.83052155 180.79135132 286.91693115 C180.65416624 318.61249454 169.48540021 346.72013468 147.80859375 369.91015625 C116.20420973 401.08960737 71.50464248 412.66929834 28.22583008 412.46386719 C25.55201488 412.45314561 22.87887325 412.46384063 20.20507812 412.4765625 C4.9952124 412.48972782 -10.11755858 411.48523073 -25.015625 408.265625 C-25.84674805 408.09232666 -26.67787109 407.91902832 -27.53417969 407.74047852 C-58.11079471 401.2562511 -86.19329287 387.20702158 -108.515625 365.203125 C-109.30582031 364.42582031 -110.09601562 363.64851563 -110.91015625 362.84765625 C-117.67546555 355.77429434 -122.63258987 347.63122076 -127.515625 339.203125 C-128.00933594 338.35105469 -128.50304687 337.49898437 -129.01171875 336.62109375 C-135.15513702 325.11980905 -139.36071063 312.38234767 -141.953125 299.640625 C-142.1169165 298.84479004 -142.28070801 298.04895508 -142.44946289 297.22900391 C-143.55275426 291.31891043 -143.515625 286.40906474 -143.515625 280.203125 C-98.965625 280.203125 -54.415625 280.203125 -8.515625 280.203125 C-7.525625 287.133125 -7.525625 287.133125 -6.515625 294.203125 C-3.82482676 302.5984155 0.80446283 308.04526338 8.578125 312.3671875 C16.9850251 315.72367373 28.1279191 315.65470461 36.484375 312.203125 C37.84802783 311.24488247 39.19231669 310.25591325 40.484375 309.203125 C41.144375 309.203125 41.804375 309.203125 42.484375 309.203125 C43.16784182 307.54327702 43.83025815 305.87475695 44.484375 304.203125 C44.855625 303.31625 45.226875 302.429375 45.609375 301.515625 C47.17654162 295.58277995 47.49155877 289.72889775 44.984375 284.015625 C33.92578605 265.05261509 1.98655341 257.99750297 -17.3203125 250.58984375 C-21.89731003 248.83334732 -26.4566206 247.03915615 -31.00439453 245.20849609 C-33.76158538 244.10465476 -36.5267089 243.02231101 -39.29296875 241.94140625 C-64.873523 231.90325816 -89.12229258 221.0584128 -109.515625 202.203125 C-110.35609375 201.43226563 -111.1965625 200.66140625 -112.0625 199.8671875 C-125.64890058 186.87348225 -133.29143496 169.99934961 -138.515625 152.203125 C-138.75023437 151.41164063 -138.98484375 150.62015625 -139.2265625 149.8046875 C-146.71298728 122.3544633 -141.3425219 88.91792867 -127.48632812 64.38037109 C-125.36029623 60.83528432 -122.99813626 57.50476447 -120.515625 54.203125 C-119.94070313 53.40777344 -119.36578125 52.61242187 -118.7734375 51.79296875 C-106.36386674 35.12296932 -89.46015251 23.34089856 -70.515625 15.203125 C-69.60296875 14.79191406 -68.6903125 14.38070313 -67.75 13.95703125 C-46.5751488 4.67133831 -23.06438356 0.0956201 0 0 Z " fill="#FDFDFD" transform="translate(1113.515625,478.796875)"/>
<path d="M0 0 C112.2 0 224.4 0 340 0 C340 32.67 340 65.34 340 99 C304.36 99 268.72 99 232 99 C232 198.99 232 298.98 232 402 C191.08 402 150.16 402 108 402 C108 302.34 108 202.68 108 100 C72.36 100 36.72 100 0 100 C0 67 0 34 0 0 Z " fill="#FDFDFD" transform="translate(1769,485)"/>
<path d="M0 0 C40.92 0 81.84 0 124 0 C124 132.33 124 264.66 124 401 C83.08 401 42.16 401 0 401 C0 268.67 0 136.34 0 0 Z " fill="#FEFEFE" transform="translate(2146,485)"/>
<path d="M0 0 C1.70703442 1.47773129 3.39572476 2.97700409 5.0625 4.5 C5.82820312 5.19609375 6.59390625 5.8921875 7.3828125 6.609375 C22.31885259 20.86886972 32.10277652 37.87109729 38.0625 57.5 C38.40410156 58.55832031 38.74570312 59.61664062 39.09765625 60.70703125 C46.41945002 87.78064078 40.55425173 119.37795371 26.92578125 143.4921875 C23.90575739 148.36727842 20.58026923 152.97404537 17.0625 157.5 C16.36511719 158.428125 15.66773438 159.35625 14.94921875 160.3125 C14.32660156 161.034375 13.70398438 161.75625 13.0625 162.5 C12.4025 162.5 11.7425 162.5 11.0625 162.5 C11.0625 163.49 11.0625 164.48 11.0625 165.5 C9.3828125 167.32421875 9.3828125 167.32421875 7.1875 169.1875 C6.10855469 170.12142578 6.10855469 170.12142578 5.0078125 171.07421875 C3.0625 172.5 3.0625 172.5 1.0625 172.5 C1.0625 173.16 1.0625 173.82 1.0625 174.5 C-1.15454595 176.18398572 -3.36042947 177.73104129 -5.6875 179.25 C-6.37054199 179.69883545 -7.05358398 180.1476709 -7.75732422 180.61010742 C-32.31219952 196.49434653 -62.30892883 203.83802057 -91.29980469 198.11694336 C-108.35958433 194.30728772 -125.41413598 187.88064864 -138.9375 176.5 C-138.9375 172.87939234 -138.29864077 172.41406132 -135.92893982 169.81103516 C-135.28595381 169.10376282 -134.6429678 168.39649048 -133.98049736 167.66778564 C-130.73678669 164.22594594 -127.42726479 160.85889116 -124.07446289 157.5234375 C-123.32241577 156.77124435 -122.57036865 156.01905121 -121.79553223 155.24406433 C-119.33610592 152.78532863 -116.87316835 150.3301432 -114.41015625 147.875 C-112.693583 146.16029396 -110.97723198 144.44536542 -109.26109314 142.73022461 C-104.76379938 138.23673216 -100.2635096 133.74625211 -95.76257324 129.25640869 C-91.16215551 124.66625657 -86.56459974 120.07323983 -81.96679688 115.48046875 C-72.95981819 106.48418527 -63.94976637 97.49098623 -54.9375 88.5 C-56.32101401 85.38573978 -57.9161157 83.27677251 -60.32901001 80.88143921 C-61.03013412 80.18045609 -61.73125824 79.47947296 -62.45362854 78.75724792 C-63.22254929 77.99865982 -63.99147003 77.24007172 -64.78369141 76.45849609 C-65.59352982 75.65157822 -66.40336823 74.84466034 -67.23774719 74.01329041 C-68.99636135 72.26228674 -70.7572822 70.51359745 -72.52022171 68.7669487 C-75.30589382 66.00676016 -78.08530794 63.24040903 -80.86312866 60.47232056 C-86.75702441 54.60060939 -92.65934009 48.73739508 -98.5625 42.875 C-105.40805731 36.07667517 -112.25031034 29.27509152 -119.08427048 22.46510696 C-121.83019747 19.73220121 -124.58205257 17.00535909 -127.33413696 14.27865601 C-129.00641703 12.61363668 -130.67841936 10.94833834 -132.35009766 9.28271484 C-133.12306686 8.52007828 -133.89603607 7.75744171 -134.69242859 6.97169495 C-135.38791306 6.27635147 -136.08339752 5.581008 -136.79995728 4.86459351 C-137.40943018 4.25956182 -138.01890308 3.65453014 -138.64684486 3.03116417 C-139.9375 1.5 -139.9375 1.5 -139.9375 -0.5 C-99.42624818 -31.6625014 -40.1167065 -32.01514321 0 0 Z " fill="#020202" transform="translate(831.9375,597.5)"/>
<path d="M0 0 C1.71509766 0.45246094 1.71509766 0.45246094 3.46484375 0.9140625 C17.45199304 4.92904351 30.0767889 11.71999229 42 20 C40.66551988 22.96377348 39.20573391 25.042448 36.90788269 27.33262634 C36.27288345 27.97037491 35.63788422 28.60812347 34.98364258 29.26519775 C33.94022705 30.29782745 33.94022705 30.29782745 32.87573242 31.35131836 C32.14220047 32.08514236 31.40866852 32.81896637 30.65290833 33.57502747 C28.2251387 36.00140315 25.79035708 38.42061353 23.35546875 40.83984375 C21.66593036 42.52565037 19.97683421 44.21190032 18.28816223 45.89857483 C13.83764176 50.34145629 9.38115283 54.77830405 4.92340088 59.21392822 C0.39782742 63.71910758 -4.12215485 68.22988846 -8.64257812 72.74023438 C-15.95030141 80.03037 -23.26147321 87.31702571 -30.57705688 94.59927368 C-31.83212019 95.84869943 -33.08591903 97.09939729 -34.3381443 98.3516674 C-35.82306923 99.82450898 -37.33226308 101.27278902 -38.8445282 102.71754456 C-40.78605755 104.77345372 -41.94194279 106.40295049 -43 109 C-42.33458694 109.66541306 -41.66917389 110.33082611 -40.9835968 111.0164032 C11 163 11 163 13.71801758 165.72000122 C15.79724899 167.79742523 17.88933288 169.86050054 19.98828125 171.91796875 C21.42978738 173.34104467 22.87119148 174.76422394 24.3125 176.1875 C25.05306641 176.91130859 25.79363281 177.63511719 26.55664062 178.38085938 C27.25595703 179.07373047 27.95527344 179.76660156 28.67578125 180.48046875 C29.31427002 181.10848389 29.95275879 181.73649902 30.6105957 182.38354492 C32 184 32 184 32 186 C32.53625 186.20625 33.0725 186.4125 33.625 186.625 C37.0017654 188.57996944 39.30474839 191.18223695 42 194 C40.49904426 198.18190812 37.54932314 200.03969664 33.9375 202.3125 C33.32261719 202.70203857 32.70773437 203.09157715 32.07421875 203.49291992 C20.67155519 210.46707402 7.92807071 214.82384436 -5 218 C-5.83789062 218.22558594 -6.67578125 218.45117188 -7.5390625 218.68359375 C-34.55166464 224.90077996 -63.74452393 216.86062097 -87.08203125 203.1953125 C-111.15270557 187.98946057 -128.06447846 163.95321847 -135.8125 136.75 C-136.01955566 136.02997803 -136.22661133 135.30995605 -136.43994141 134.56811523 C-144.00110394 106.56888195 -138.50645045 76.69091943 -124.6796875 51.70703125 C-119.25425236 42.37999866 -112.59638869 34.61866548 -105 27 C-104.26523437 26.22140625 -103.53046875 25.4428125 -102.7734375 24.640625 C-101 23 -101 23 -99 23 C-99 22.34 -99 21.68 -99 21 C-97.03009174 19.51641284 -95.08226213 18.18552044 -93 16.875 C-92.37569092 16.47901611 -91.75138184 16.08303223 -91.1081543 15.67504883 C-80.79657644 9.26335441 -69.69061264 3.40359609 -58 0 C-56.99066406 -0.29777344 -55.98132813 -0.59554687 -54.94140625 -0.90234375 C-37.42180292 -5.21761494 -17.40341054 -4.63298984 0 0 Z " fill="#020202" transform="translate(441,577)"/>
<path d="M0 0 C1.69078764 1.45452037 3.37870364 2.912392 5.0625 4.375 C5.67222656 4.84035156 6.28195312 5.30570312 6.91015625 5.78515625 C25.93901767 20.49541082 38.26095748 47.31081012 41.76513672 70.69873047 C43.54655473 86.7314926 42.95074681 102.95879393 38.0625 118.375 C37.84819336 119.055625 37.63388672 119.73625 37.41308594 120.4375 C33.18366646 133.43973281 26.97634188 147.89981638 18.0625 158.375 C17.4025 158.375 16.7425 158.375 16.0625 158.375 C14.83705139 157.12831116 14.83705139 157.12831116 13.32836914 155.26977539 C8.16820278 149.20853939 2.48087352 143.6826312 -3.16156197 138.07577324 C-5.22870199 136.02153071 -7.29258465 133.96406344 -9.35569763 131.90577698 C-13.73431558 127.5385204 -18.11686116 123.17521862 -22.5 118.8125 C-27.58696175 113.74921668 -32.67225782 108.68428331 -37.75333977 103.61509895 C-39.77747951 101.59739669 -41.80462847 99.5827523 -43.83192444 97.56822205 C-45.08284165 96.32094021 -46.33361708 95.07351616 -47.58422852 93.82592773 C-48.14075607 93.2745665 -48.69728363 92.72320526 -49.27067566 92.15513611 C-52.55150163 88.87474799 -55.61328824 85.4835301 -58.56759548 81.90528965 C-60.46734873 79.78311786 -62.71236791 78.14201666 -64.9375 76.375 C-64.9375 75.715 -64.9375 75.055 -64.9375 74.375 C-65.5975 74.375 -66.2575 74.375 -66.9375 74.375 C-68.5625 72.875 -68.5625 72.875 -69.9375 71.375 C-74.95816801 76.37019558 -79.97481844 81.36940029 -84.98876953 86.37133789 C-86.69293693 88.07049398 -88.39800301 89.76874925 -90.10400391 91.46606445 C-92.56392646 93.91378074 -95.02053896 96.36477847 -97.4765625 98.81640625 C-98.23305084 99.56773331 -98.98953918 100.31906036 -99.76895142 101.09315491 C-103.106782 104.43063548 -106.3262717 107.77599563 -109.34130859 111.40991211 C-110.19805176 112.38839111 -111.05479492 113.36687012 -111.9375 114.375 C-112.5975 114.375 -113.2575 114.375 -113.9375 114.375 C-114.3161898 115.24019257 -114.3161898 115.24019257 -114.70252991 116.12286377 C-116.09072898 118.65443392 -117.66311131 120.36147524 -119.69702148 122.40917969 C-120.46799667 123.18968689 -121.23897186 123.97019409 -122.03330994 124.77435303 C-122.86665359 125.60678528 -123.69999725 126.43921753 -124.55859375 127.296875 C-125.41429459 128.15686096 -126.26999542 129.01684692 -127.15162659 129.90289307 C-128.96059052 131.71759713 -130.77217738 133.52968978 -132.58618164 135.33935547 C-135.36948049 138.11948677 -138.13918211 140.91268757 -140.90820312 143.70703125 C-142.66585579 145.46695604 -144.42429285 147.22609787 -146.18359375 148.984375 C-147.43057289 150.24516876 -147.43057289 150.24516876 -148.70274353 151.53143311 C-149.47687088 152.29933167 -150.25099823 153.06723022 -151.04858398 153.85839844 C-152.06878883 154.87954742 -152.06878883 154.87954742 -153.10960388 155.92132568 C-154.9375 157.375 -154.9375 157.375 -157.9375 157.375 C-161.02695349 153.33184564 -163.44782603 148.80834633 -165.9375 144.375 C-166.55367188 143.281875 -167.16984375 142.18875 -167.8046875 141.0625 C-171.31812908 134.44161453 -173.97415676 127.81622358 -176.25 120.6875 C-176.49250488 119.92808105 -176.73500977 119.16866211 -176.98486328 118.38623047 C-179.98548556 108.51492536 -181.3076731 98.93594777 -181.25 88.625 C-181.24508545 87.57441406 -181.2401709 86.52382813 -181.23510742 85.44140625 C-181.10958005 77.06776521 -180.18141045 69.47298327 -177.9375 61.375 C-177.68806641 60.42584717 -177.68806641 60.42584717 -177.43359375 59.45751953 C-172.11088847 39.42344829 -162.10162407 23.45041882 -147.9375 8.375 C-147.421875 7.78332031 -146.90625 7.19164062 -146.375 6.58203125 C-136.12906564 -4.65114157 -121.75169251 -11.83455097 -107.9375 -17.625 C-107.133125 -17.97175781 -106.32875 -18.31851562 -105.5 -18.67578125 C-71.20422907 -31.73764713 -28.06097845 -22.77801115 0 0 Z " fill="#010202" transform="translate(656.9375,422.625)"/>
<path d="M0 0 C3.39681716 1.13227239 3.68951226 1.62669094 5.48828125 4.54296875 C5.94452881 5.27999023 6.40077637 6.01701172 6.87084961 6.77636719 C7.34659424 7.57204102 7.82233887 8.36771484 8.3125 9.1875 C9.04835327 10.41001465 9.04835327 10.41001465 9.79907227 11.65722656 C16.40508484 22.83680075 20.9223288 34.36379229 24 47 C24.226875 47.91523437 24.45375 48.83046875 24.6875 49.7734375 C29.81713435 74.63791511 24.63033231 100.77643507 13 123 C12.42121094 124.12921875 11.84242188 125.2584375 11.24609375 126.421875 C7.89028385 132.55732325 3.97442936 137.64751169 -0.83984375 142.7109375 C-2.71429118 144.69724165 -4.37463753 146.73322151 -6.0625 148.875 C-23.42269455 168.68085706 -51.80599163 180.27109376 -77.63330078 182.19628906 C-107.49840167 183.86625602 -135.24677174 174.49754126 -158 155 C-158.82242188 154.32324219 -159.64484375 153.64648438 -160.4921875 152.94921875 C-179.29991019 136.92457029 -190.68196523 114.04430869 -195 90 C-195.25692627 88.87428589 -195.25692627 88.87428589 -195.51904297 87.72583008 C-196.52997487 81.9963607 -196.29180194 76.11703265 -196.3125 70.3125 C-196.31511841 69.6166983 -196.31773682 68.92089661 -196.32043457 68.20401001 C-196.32494642 57.02670365 -195.40996807 46.69327967 -192 36 C-191.72285156 35.10796875 -191.44570313 34.2159375 -191.16015625 33.296875 C-187.09241322 21.9746778 -180.47237141 11.09371655 -174 1 C-170.47901586 1.58299168 -168.82780051 2.80021835 -166.33001709 5.30921936 C-165.26158569 6.37146477 -165.26158569 6.37146477 -164.17156982 7.45516968 C-163.01494843 8.62796982 -163.01494843 8.62796982 -161.83496094 9.82446289 C-160.60513489 11.05363182 -160.60513489 11.05363182 -159.35046387 12.30763245 C-156.63793118 15.0222578 -153.9361834 17.74736047 -151.234375 20.47265625 C-149.35744177 22.35518371 -147.47992922 24.23711473 -145.60162354 26.11827087 C-141.16163839 30.56758015 -136.72935592 35.02448142 -132.29978585 39.48415703 C-127.25613872 44.56133667 -122.20397001 49.63 -117.15106535 54.69796383 C-106.75786547 65.12252107 -96.37541419 75.55774007 -86 86 C-80.76573446 81.62291198 -75.87735843 77.02062867 -71.06103516 72.19042969 C-70.30084076 71.43198761 -69.54064636 70.67354553 -68.75741577 69.89212036 C-66.2654568 67.40453457 -63.77713998 64.9133426 -61.2890625 62.421875 C-59.55282968 60.68631617 -57.81644846 58.95090577 -56.07992554 57.21563721 C-52.45220942 53.58939161 -48.82629908 49.9613526 -45.20166016 46.33203125 C-40.5476422 41.67229507 -35.88912087 37.01709096 -31.22925758 32.36320114 C-27.64851491 28.78606336 -24.07014669 25.20655798 -20.49250412 21.62631989 C-18.77476857 19.90791597 -17.05628634 18.19025813 -15.33705521 16.47335052 C-12.94314694 14.08196987 -10.5524473 11.68742792 -8.16259766 9.29199219 C-7.44783264 8.5792514 -6.73306763 7.86651062 -5.99664307 7.13217163 C-5.02529922 6.15659805 -5.02529922 6.15659805 -4.03433228 5.16131592 C-3.46914698 4.59575359 -2.90396168 4.03019127 -2.32164955 3.44749069 C-0.89480891 2.01697958 -0.89480891 2.01697958 0 0 Z " fill="#020202" transform="translate(673,790)"/>
<path d="M0 0 C1.13969238 0.00942627 2.27938477 0.01885254 3.45361328 0.02856445 C24.9080046 0.41282678 43.90681376 7.96063089 59.125 23.375 C75.76441927 41.47620003 82.38000427 65.39712928 82.25 89.5625 C82.24589111 90.48796631 82.24178223 91.41343262 82.23754883 92.36694336 C82.14439665 103.84269113 81.22329915 114.29963199 78.125 125.375 C77.87105469 126.47585938 77.61710937 127.57671875 77.35546875 128.7109375 C72.28097499 149.33330942 58.86061437 163.61645892 41.4765625 175.12890625 C24.11480836 185.53031751 0.33166215 186.39122705 -19.09448242 182.13989258 C-22.07527723 181.36002702 -24.97252747 180.40595249 -27.875 179.375 C-28.7721875 179.09785156 -29.669375 178.82070313 -30.59375 178.53515625 C-47.42458933 172.756213 -60.89256553 158.61344316 -68.72387695 143.01269531 C-72.52280543 135.05460401 -75.01636542 127.00752078 -76.875 118.375 C-77.05305176 117.59044434 -77.23110352 116.80588867 -77.41455078 115.99755859 C-79.04646944 108.15073763 -79.17330359 100.49424426 -79.125 92.5 C-79.13273437 91.22769531 -79.14046875 89.95539063 -79.1484375 88.64453125 C-79.12179288 75.60198973 -77.2374128 63.66511979 -72.875 51.375 C-72.47667969 50.240625 -72.07835937 49.10625 -71.66796875 47.9375 C-67.95464002 38.34919295 -62.57407172 31.07658284 -55.875 23.375 C-55.28976562 22.67632813 -54.70453125 21.97765625 -54.1015625 21.2578125 C-40.55952231 6.34094589 -19.56581477 -0.25151478 0 0 Z " fill="#020202" transform="translate(1536.875,591.625)"/>
<path d="M0 0 C4.14315602 1.63317411 6.91805103 4.6437263 9.99023438 7.74731445 C10.87392448 8.62815704 10.87392448 8.62815704 11.77546692 9.52679443 C13.71981336 11.46743931 15.65686943 13.41518713 17.59375 15.36328125 C18.94572065 16.71644446 20.29806166 18.06923771 21.65075684 19.42167664 C24.4849617 22.25744545 27.31577623 25.09654138 30.14404297 27.93823242 C33.76372587 31.57488053 37.38993172 35.20493608 41.01848602 38.83273029 C43.8120723 41.626589 46.60304057 44.4230506 49.3931427 47.22038841 C50.72895228 48.55937346 52.06536245 49.89775961 53.40238953 51.23552895 C55.27404067 53.10935693 57.14235696 54.98644719 59.00976562 56.86450195 C59.55949539 57.41377853 60.10922516 57.96305511 60.6756134 58.52897644 C63.01465764 60.88746775 65.17391726 63.21811034 67.24938965 65.82096863 C68.81673497 68.08219415 68.81673497 68.08219415 71 69 C70.1875 71.4375 70.1875 71.4375 69 74 C68.01 74.33 67.02 74.66 66 75 C65.32070298 76.32694302 64.65657723 77.66166949 64 79 C62.53307887 80.64079267 61.00648519 82.22888332 59.44604492 83.78100586 C58.75539696 84.4720919 58.75539696 84.4720919 58.05079651 85.17713928 C56.53204786 86.69449827 55.0063405 88.20465084 53.48046875 89.71484375 C52.41869623 90.77288188 51.35736756 91.83136559 50.29646301 92.89027405 C47.50308435 95.6760252 44.70375902 98.45572517 41.90313721 101.23419189 C39.06661761 104.05032739 36.23567261 106.87205388 33.40429688 109.69335938 C28.41067568 114.66785612 23.41217127 119.63739925 18.41007996 124.6033783 C15.93537151 127.06426759 13.46676387 129.5311492 11 132 C8 135 5 138 2 141 C-2.59503315 137.24895253 -6.4822515 133.38839411 -10.31640625 128.87109375 C-12.11306898 126.7847351 -12.11306898 126.7847351 -15 124.5 C-18.11533207 121.90388994 -20.58390502 119.1255716 -23.20703125 116.05078125 C-25.983171 112.875458 -28.98964478 109.95067857 -32 107 C-33.66751976 105.33417928 -35.33401651 103.66735594 -37 102 C-38.13772915 100.86217577 -39.27550925 99.72440247 -40.41333008 98.58666992 C-49.60888672 89.39111328 -58.80444336 80.19555664 -68 71 C-66.59295189 67.8111892 -64.92283679 65.67860668 -62.45581055 63.22875977 C-61.73133224 62.50443253 -61.00685394 61.78010529 -60.26042175 61.03382874 C-59.08543877 59.87432961 -59.08543877 59.87432961 -57.88671875 58.69140625 C-57.08015335 57.88767075 -56.27358795 57.08393524 -55.44258118 56.25584412 C-52.86221124 53.6866633 -50.27498812 51.12450984 -47.6875 48.5625 C-45.95592158 46.84095597 -44.22479645 45.11895588 -42.49414062 43.39648438 C-39.30968923 40.22836064 -36.12267028 37.06287148 -32.93237305 33.90063477 C-29.94714164 30.94146271 -26.97076096 27.97370781 -24 25 C-22.68297618 23.69332013 -21.36529935 22.387298 -20.046875 21.08203125 C-18.61453307 19.65890475 -17.18224249 18.23572657 -15.75 16.8125 C-15.0178125 16.08869141 -14.285625 15.36488281 -13.53125 14.61914062 C-12.83515625 13.92626953 -12.1390625 13.23339844 -11.421875 12.51953125 C-10.78862305 11.89151611 -10.15537109 11.26350098 -9.50292969 10.61645508 C-7.91075025 9.05609672 -7.91075025 9.05609672 -7 7 C-6.34 7 -5.68 7 -5 7 C-4.67 6.01 -4.34 5.02 -4 4 C-2.70644173 2.62804426 -1.37701298 1.28817344 0 0 Z " fill="#020302" transform="translate(499,615)"/>
<path d="M0 0 C2.80387058 1.27886769 4.85248535 2.60381048 7.02459717 4.78408813 C7.87846764 5.63383461 7.87846764 5.63383461 8.74958801 6.50074768 C9.66776558 7.42971107 9.66776558 7.42971107 10.60449219 8.37744141 C11.25856552 9.03122269 11.91263885 9.68500397 12.58653259 10.3585968 C14.74475514 12.51821138 16.89580936 14.6848212 19.046875 16.8515625 C20.54287809 18.35129616 22.03932369 19.85058853 23.53619385 21.34945679 C27.47300225 25.29389812 31.40376734 29.24430894 35.33331299 33.19598389 C39.34488498 37.22802153 43.36213094 41.25439714 47.37890625 45.28125 C55.25817445 53.18196213 63.13107125 61.0889909 71 69 C68.62123997 73.91265658 65.67432526 77.49252753 61.5 81 C57.89519681 84.08131155 54.67994536 87.42832055 51.5 90.9375 C46.57933299 96.3518444 41.52790854 101.61850246 36.375 106.8125 C35.67568359 107.52462646 34.97636719 108.23675293 34.25585938 108.97045898 C33.60166016 109.62602783 32.94746094 110.28159668 32.2734375 110.95703125 C31.68997559 111.54460205 31.10651367 112.13217285 30.50537109 112.73754883 C29 114 29 114 27 114 C26.505 115.485 26.505 115.485 26 117 C24.89635791 118.16768322 23.78219204 119.32686762 22.62255859 120.43896484 C20.66314695 122.32408041 18.76563915 124.26437098 16.86328125 126.20703125 C15.34646502 127.74229703 13.82953531 129.2774507 12.3125 130.8125 C11.54099609 131.60076172 10.76949219 132.38902344 9.97460938 133.20117188 C9.23662109 133.94560547 8.49863281 134.69003906 7.73828125 135.45703125 C6.73341675 136.4776062 6.73341675 136.4776062 5.70825195 137.51879883 C4 139 4 139 2 139 C1.67 139.66 1.34 140.32 1 141 C-2.28190459 137.76743024 -5.55726457 134.52842394 -8.82666016 131.28320312 C-9.94043123 130.17950702 -11.05598832 129.07761027 -12.17333984 127.97753906 C-13.77651237 126.39854926 -15.37320911 124.81325886 -16.96875 123.2265625 C-17.47184692 122.73378815 -17.97494385 122.24101379 -18.49328613 121.73330688 C-19.70074513 120.526244 -20.85582929 119.26721404 -22 118 C-22 117.34 -22 116.68 -22 116 C-23.32 115.34 -24.64 114.68 -26 114 C-26 113.34 -26 112.68 -26 112 C-26.66 112 -27.32 112 -28 112 C-30.125 110.125 -30.125 110.125 -32 108 C-32 107.34 -32 106.68 -32 106 C-32.66 106 -33.32 106 -34 106 C-36.125 104.125 -36.125 104.125 -38 102 C-38 101.34 -38 100.68 -38 100 C-38.66 100 -39.32 100 -40 100 C-40 99.34 -40 98.68 -40 98 C-40.66 98 -41.32 98 -42 98 C-42 97.34 -42 96.68 -42 96 C-42.66 96 -43.32 96 -44 96 C-45.41235352 94.56201172 -45.41235352 94.56201172 -47.06640625 92.5546875 C-51.81128372 86.97204453 -57.05088639 81.93282267 -62.29882812 76.828125 C-63.03423828 76.10367188 -63.76964844 75.37921875 -64.52734375 74.6328125 C-65.19499756 73.98199707 -65.86265137 73.33118164 -66.55053711 72.66064453 C-68 71 -68 71 -68 69 C-67.34 69 -66.68 69 -66 69 C-65.67 68.01 -65.34 67.02 -65 66 C-63.0625 63.8125 -63.0625 63.8125 -61 62 C-60.34 62 -59.68 62 -59 62 C-58.76203201 61.43638763 -58.52406403 60.87277527 -58.27888489 60.29208374 C-56.71427924 57.48791645 -54.8200609 55.58800741 -52.5378418 53.32666016 C-51.61315598 52.40535309 -50.68847015 51.48404602 -49.73576355 50.53482056 C-48.72360932 49.53620679 -47.71142703 48.53762148 -46.69921875 47.5390625 C-45.65979404 46.50591417 -44.62088677 45.47224501 -43.58247375 44.43807983 C-40.84810066 41.71699829 -38.10822198 39.00153467 -35.36669922 36.28765869 C-30.98861508 31.95269977 -26.61715209 27.61109213 -22.24906349 23.26606369 C-20.72880523 21.75595152 -19.20513642 20.24934606 -17.68107605 18.74307251 C-12.09976989 13.23648118 -12.09976989 13.23648118 -6.95629883 7.32958984 C-6.31072021 6.5608252 -5.6651416 5.79206055 -5 5 C-4.34 5 -3.68 5 -3 5 C-2.5359375 4.0409375 -2.5359375 4.0409375 -2.0625 3.0625 C-1 1 -1 1 0 0 Z " fill="#020302" transform="translate(673,615)"/>
<path d="M0 0 C3.67267816 1.31839729 6.03559427 3.76785305 8.75 6.5 C9.54921875 7.2940625 10.3484375 8.088125 11.171875 8.90625 C13 11 13 11 13 13 C13.58136719 13.25523437 14.16273438 13.51046875 14.76171875 13.7734375 C20.10067964 16.6991508 24.15943929 21.96533829 28.0625 26.5625 C33.44125363 32.82731281 39.44865242 38.52556531 45.31347656 44.32958984 C47.55033372 46.54507575 49.77565444 48.77195952 52 51 C52.78761719 51.78761719 53.57523438 52.57523438 54.38671875 53.38671875 C59.59114583 58.59114583 64.79557292 63.79557292 70 69 C68.42369323 72.87321093 65.92252331 75.24735163 62.9375 78.125 C59.53546517 81.24105765 59.53546517 81.24105765 57 85 C56.34 85 55.68 85 55 85 C55 85.66 55 86.32 55 87 C53.58178711 88.39916992 53.58178711 88.39916992 51.58984375 90.04296875 C46.66742648 94.22979005 42.11871175 98.733899 37.5625 103.3125 C36.74845703 104.12267578 35.93441406 104.93285156 35.09570312 105.76757812 C34.32291016 106.54166016 33.55011719 107.31574219 32.75390625 108.11328125 C31.70698608 109.16189331 31.70698608 109.16189331 30.63891602 110.23168945 C28.92637322 111.91392168 28.92637322 111.91392168 28 114 C27.34 114 26.68 114 26 114 C25.67708984 114.82951172 25.67708984 114.82951172 25.34765625 115.67578125 C23.55726128 118.76356388 21.09065208 120.86244576 18.4375 123.1875 C17.3553431 124.15726332 16.27463032 125.12864036 15.1953125 126.1015625 C14.6580957 126.5852832 14.12087891 127.06900391 13.56738281 127.56738281 C7.00983525 133.16232344 7.00983525 133.16232344 2 140 C-0.80387058 138.72113231 -2.85248535 137.39618952 -5.02459717 135.21591187 C-5.87846764 134.36616539 -5.87846764 134.36616539 -6.74958801 133.49925232 C-7.36170639 132.87994339 -7.97382477 132.26063446 -8.60449219 131.62255859 C-9.25856552 130.96877731 -9.91263885 130.31499603 -10.58653259 129.6414032 C-12.74475514 127.48178862 -14.89580936 125.3151788 -17.046875 123.1484375 C-18.54287809 121.64870384 -20.03932369 120.14941147 -21.53619385 118.65054321 C-25.47300225 114.70610188 -29.40376734 110.75569106 -33.33331299 106.80401611 C-37.34488498 102.77197847 -41.36213094 98.74560286 -45.37890625 94.71875 C-53.25817445 86.81803787 -61.13107125 78.9110091 -69 71 C-67.47293921 67.7896559 -65.88822827 65.66257672 -63.33203125 63.171875 C-62.60306641 62.45386719 -61.87410156 61.73585938 -61.12304688 60.99609375 C-60.36056641 60.25488281 -59.59808594 59.51367188 -58.8125 58.75 C-53.76729726 53.82294164 -48.90571457 48.88812273 -44.41674805 43.44238281 C-43.94922119 42.96639648 -43.48169434 42.49041016 -43 42 C-42.34 42 -41.68 42 -41 42 C-41 41.34 -41 40.68 -41 40 C-39.71484375 38.7734375 -39.71484375 38.7734375 -37.9375 37.375 C-35.38243354 35.26941465 -33.17128027 33.13987202 -31.0546875 30.59765625 C-26.2747467 25.05621308 -21.08208012 19.93230566 -15.90063477 14.77026367 C-14.17019863 13.04525287 -12.4452551 11.31487572 -10.72070312 9.58398438 C-9.62011271 8.48405367 -8.51921272 7.38443262 -7.41796875 6.28515625 C-6.64612495 5.51027611 -6.64612495 5.51027611 -5.85868835 4.71974182 C-2.23001196 1.11500598 -2.23001196 1.11500598 0 0 Z " fill="#020202" transform="translate(587,703)"/>
<path d="M0 0 C2.17120439 1.00434498 3.30173766 1.9965666 4.89299011 3.77719116 C5.46464905 4.40339859 6.03630798 5.02960602 6.62528992 5.67478943 C7.25310364 6.37510788 7.88091736 7.07542633 8.52775574 7.79696655 C15.72070445 15.62502086 23.13027089 23.20236256 30.65275574 30.71102905 C31.21030548 31.26810925 31.76785522 31.82518944 32.34230042 32.39915085 C35.78339467 35.83688206 39.22820035 39.2708712 42.67430115 42.70358276 C45.64688273 45.66575088 48.61647081 48.63091707 51.58634949 51.59579468 C57.36605827 57.36492615 63.14894806 63.13085502 68.93400574 68.8946228 C67.29610035 73.08162043 64.21849182 75.86989358 61.07902527 78.96078491 C60.48043701 79.55805893 59.88184875 80.15533295 59.26512146 80.77070618 C57.28691065 82.74243063 55.30182282 84.70708387 53.31681824 86.67196655 C51.9386957 88.04381645 50.56108854 89.41618426 49.18397522 90.78904724 C45.55653164 94.40318731 41.92356821 98.0117232 38.28898621 101.61868286 C32.47743135 107.38713143 26.67252659 113.16225194 20.87092209 118.94070625 C18.84592362 120.95550773 16.81753063 122.96684461 14.78877258 124.9778595 C13.54165651 126.21814412 12.29465153 127.45854045 11.04777527 128.69906616 C10.48555267 129.25455139 9.92333008 129.81003662 9.34407043 130.38235474 C6.94615903 132.77333403 4.79600214 135.07617987 2.73939514 137.78184509 C2.14361664 138.47906174 1.54783813 139.17627838 0.93400574 139.8946228 C-2.06599426 139.8946228 -2.06599426 139.8946228 -3.60896301 138.4258728 C-4.15165833 137.7555603 -4.69435364 137.0852478 -5.25349426 136.3946228 C-8.95874492 131.96868914 -12.95137856 127.93662764 -17.06599426 123.8946228 C-18.73345253 122.22874812 -20.40000907 120.56197066 -22.06599426 118.8946228 C-22.86576187 118.09485519 -23.66552948 117.29508759 -24.48953247 116.47108459 C-39.6816864 101.27893066 -54.87384033 86.08677673 -70.06599426 70.8946228 C-68.45388478 67.48240745 -66.67193392 65.27878999 -63.96052551 62.6289978 C-62.73172668 61.41663452 -62.73172668 61.41663452 -61.47810364 60.17977905 C-60.62023254 59.34317749 -59.76236145 58.50657593 -58.87849426 57.6446228 C-57.19503428 55.99610011 -55.5140097 54.34508644 -53.83552551 52.6914978 C-53.08891663 51.96285522 -52.34230774 51.23421265 -51.57307434 50.48348999 C-49.58511667 48.43068026 -47.71290722 46.35438231 -45.84870911 44.19271851 C-39.16611871 36.49546518 -31.84860872 29.37415188 -24.6678009 22.14633179 C-22.79730249 20.25913396 -20.9315424 18.36849452 -19.07307434 16.46957397 C-16.38079459 13.72288562 -13.67275837 10.99268612 -10.96052551 8.26571655 C-10.12817886 7.41070053 -9.29583221 6.55568451 -8.43826294 5.67475891 C-7.66032883 4.89967484 -6.88239471 4.12459076 -6.08088684 3.32601929 C-5.40028702 2.63733261 -4.71968719 1.94864594 -4.01846313 1.23908997 C-2.06599426 -0.1053772 -2.06599426 -0.1053772 0 0 Z " fill="#010201" transform="translate(588.0659942626953,528.1053771972656)"/>
<path d="M0 0 C2.69266987 0.99232968 3.78092105 1.53162432 5.01953125 4.1796875 C5.41205078 5.51386719 5.41205078 5.51386719 5.8125 6.875 C11.08964328 22.54216078 20.72161461 32.96090907 35 41 C39.26812405 42.88125425 43.57880683 44.516761 48 46 C48 47.32 48 48.64 48 50 C46.906875 50.37125 45.81375 50.7425 44.6875 51.125 C24.38205559 58.77997285 12.98918248 71.84520826 4.125 91.1875 C3.4123828 92.78976824 2.70238377 94.39321942 2 96 C0.07421875 95.265625 0.07421875 95.265625 -2 94 C-2.73046875 92.109375 -2.73046875 92.109375 -3.1875 89.75 C-6.65858728 76.68126157 -16.34024935 65.58637862 -27.53515625 58.41015625 C-31.86987663 55.93022906 -36.42632582 53.99039525 -41 52 C-43.01760622 51.02999701 -45.00845911 50.02268316 -47 49 C-47 48.01 -47 47.02 -47 46 C-46.20078125 45.72027344 -45.4015625 45.44054688 -44.578125 45.15234375 C-25.72946711 38.27214116 -13.94666648 28.93381562 -5 11 C-3.81131392 8.28594796 -2.70411254 5.57677573 -1.69140625 2.79296875 C-1 1 -1 1 0 0 Z " fill="#7E7F7E" transform="translate(3087,1178)"/>
<path d="M0 0 C47.52 0 95.04 0 144 0 C143.67 1.32 143.34 2.64 143 4 C72.215 3.505 72.215 3.505 0 3 C0 2.01 0 1.02 0 0 Z " fill="#161817" transform="translate(2583,482)"/>
<path d="M0 0 C1.9205562 0.05333978 3.84112918 0.10607891 5.76171875 0.15820312 C10.42470145 0.28604651 15.0873819 0.4220098 19.75 0.5625 C19.75 1.2225 19.75 1.8825 19.75 2.5625 C20.41 3.2225 21.07 3.8825 21.75 4.5625 C14.57825065 4.44475684 7.40664966 4.31992829 0.23510742 4.19018555 C-2.2043173 4.14688791 -4.64377132 4.10520917 -7.08325195 4.06518555 C-10.59074734 4.00735792 -14.09809597 3.94369915 -17.60546875 3.87890625 C-18.69522507 3.86219376 -19.78498138 3.84548126 -20.90776062 3.82826233 C-21.92844131 3.80831711 -22.94912201 3.78837189 -24.00073242 3.76782227 C-24.89563889 3.75227798 -25.79054535 3.7367337 -26.71257019 3.72071838 C-29.30253091 3.5592245 -31.7205149 3.12986995 -34.25 2.5625 C-33.92 1.9025 -33.59 1.2425 -33.25 0.5625 C-22.63931365 -1.74399991 -10.78529122 -0.32685523 0 0 Z " fill="#1A1B1A" transform="translate(1136.25,475.4375)"/>
<path d="M0 0 C0.66 0 1.32 0 2 0 C9 0 16 0 23 0 C23 0.99 23 1.98 23 3 C21.7939209 3.01401855 21.7939209 3.01401855 20.56347656 3.02832031 C3.58665127 3.27534402 -12.80426427 3.91090996 -29.23925781 8.64501953 C-31.13886181 9.17685747 -33.06870959 9.59817378 -35 10 C-35.66 9.34 -36.32 8.68 -37 8 C-29.91422318 4.88026688 -22.69650093 3.18722229 -15.125 1.75 C-14.20952393 1.57500977 -13.29404785 1.40001953 -12.35083008 1.21972656 C-8.15744457 0.45329736 -4.273912 -0.08413565 0 0 Z " fill="#242624" transform="translate(578,372)"/>
<path d="M0 0 C0.495 0.99 0.495 0.99 1 2 C0.67 2.66 0.34 3.32 0 4 C-0.66 4 -1.32 4 -2 4 C-2 4.66 -2 5.32 -2 6 C-3.35546875 7.296875 -3.35546875 7.296875 -5.1875 8.75 C-7.68658083 10.80390044 -9.80487614 12.83842136 -11.8125 15.375 C-12.534375 16.24125 -13.25625 17.1075 -14 18 C-14.66 18 -15.32 18 -16 18 C-16 18.66 -16 19.32 -16 20 C-16.66 20 -17.32 20 -18 20 C-18 20.66 -18 21.32 -18 22 C-19.35546875 23.33203125 -19.35546875 23.33203125 -21.1875 24.8125 C-24.30386775 27.40014268 -27.16643186 30.09896595 -30 33 C-30.73863281 33.71671875 -31.47726562 34.4334375 -32.23828125 35.171875 C-33.04652344 35.96078125 -33.85476563 36.7496875 -34.6875 37.5625 C-35.45449219 38.30628906 -36.22148438 39.05007813 -37.01171875 39.81640625 C-38.8426666 41.82721145 -39.9459479 43.51424078 -41 46 C-42.32 45.67 -43.64 45.34 -45 45 C-30.15 30.15 -15.3 15.3 0 0 Z " fill="#171716" transform="translate(644,820)"/>
<path d="M0 0 C0 3 0 3 -1.45288086 4.77758789 C-2.11682861 5.41946045 -2.78077637 6.06133301 -3.46484375 6.72265625 C-4.54088867 7.77743164 -4.54088867 7.77743164 -5.63867188 8.85351562 C-6.39728516 9.58248047 -7.15589844 10.31144531 -7.9375 11.0625 C-9.42785676 12.50958424 -10.91623931 13.95870537 -12.40234375 15.41015625 C-13.06741943 16.05090088 -13.73249512 16.69164551 -14.41772461 17.35180664 C-16.08779611 18.9282522 -16.08779611 18.9282522 -17 21 C-17.66 21 -18.32 21 -19 21 C-19 21.66 -19 22.32 -19 23 C-19.66 23 -20.32 23 -21 23 C-21 23.66 -21 24.32 -21 25 C-22.64453125 26.62109375 -22.64453125 26.62109375 -24.8125 28.4375 C-30.29553491 33.00975618 -30.29553491 33.00975618 -34 39 C-34.99 38.67 -35.98 38.34 -37 38 C-32.75789864 32.93288701 -28.32282911 28.18776629 -23.6328125 23.53515625 C-22.95322479 22.85698349 -22.27363708 22.17881073 -21.57345581 21.48008728 C-19.42632998 19.33850859 -17.27573373 17.20045471 -15.125 15.0625 C-13.65862227 13.60114411 -12.1924742 12.13955774 -10.7265625 10.67773438 C-7.15369 7.11582065 -3.57770316 3.55706135 0 0 Z " fill="#2F2F2F" transform="translate(577,537)"/>
<path d="M0 0 C0.99 0.33 1.98 0.66 3 1 C2.07058594 1.90621094 1.14117187 2.81242187 0.18359375 3.74609375 C-6.35015346 10.16691635 -12.70812135 16.47996192 -18 24 C-18.66 23.34 -19.32 22.68 -20 22 C-19.34 20.68 -18.68 19.36 -18 18 C-17.34 18 -16.68 18 -16 18 C-15.34 16.35 -14.68 14.7 -14 13 C-13.34 13 -12.68 13 -12 13 C-12 12.34 -12 11.68 -12 11 C-11.34 11 -10.68 11 -10 11 C-10 10.01 -10 9.02 -10 8 C-9.01 7.67 -8.02 7.34 -7 7 C-5.64613064 5.34997172 -4.31321858 3.6825613 -3 2 C-2.01 1.34 -1.02 0.68 0 0 Z " fill="#111212" transform="translate(497,406)"/>
<path d="M0 0 C0.66 0.66 1.32 1.32 2 2 C1.44199707 2.48654053 0.88399414 2.97308105 0.30908203 3.47436523 C-7.48058902 10.36655457 -14.79902452 17.6848645 -22.125 25.0625 C-23.37997204 26.32250102 -24.63517886 27.58226824 -25.890625 28.84179688 C-28.92979084 31.89184853 -31.96578227 34.9450262 -35 38 C-35.66 37.67 -36.32 37.34 -37 37 C-24.79 24.79 -12.58 12.58 0 0 Z " fill="#D1D2D1" transform="translate(587,493)"/>
<path d="M0 0 C-0.66 0.66 -1.32 1.32 -2 2 C-2.66 1.67 -3.32 1.34 -4 1 C-4 1.66 -4 2.32 -4 3 C-4.5347998 3.23187012 -5.06959961 3.46374023 -5.62060547 3.70263672 C-8.0408853 4.75522962 -10.45794771 5.81501804 -12.875 6.875 C-14.13763672 7.42220703 -14.13763672 7.42220703 -15.42578125 7.98046875 C-16.63427734 8.51220703 -16.63427734 8.51220703 -17.8671875 9.0546875 C-18.61081543 9.37937012 -19.35444336 9.70405273 -20.12060547 10.03857422 C-22.17089061 10.96590354 -22.17089061 10.96590354 -24 13 C-26.125 12.625 -26.125 12.625 -28 12 C-23.81807831 8.29291802 -19.40801109 6.10140351 -14.375 3.8125 C-13.611875 3.45736328 -12.84875 3.10222656 -12.0625 2.73632812 C-3.5694856 -1.18982853 -3.5694856 -1.18982853 0 0 Z " fill="#151615" transform="translate(555,405)"/>
<path d="M0 0 C7.59 0 15.18 0 23 0 C23 0.33 23 0.66 23 1 C25.64 1.33 28.28 1.66 31 2 C31 2.33 31 2.66 31 3 C20.44 3 9.88 3 -1 3 C-0.67 2.01 -0.34 1.02 0 0 Z " fill="#1B1C1B" transform="translate(1518,476)"/>
<path d="M0 0 C5.37248428 1.51531608 9.24053532 2.68357759 13 7 C15.13309192 8.23512079 15.13309192 8.23512079 17 9 C16.67 10.32 16.34 11.64 16 13 C13.72609813 11.56717148 11.45589859 10.12899467 9.1875 8.6875 C8.54490234 8.28337891 7.90230469 7.87925781 7.24023438 7.46289062 C6.61826172 7.06650391 5.99628906 6.67011719 5.35546875 6.26171875 C4.78465576 5.90037842 4.21384277 5.53903809 3.62573242 5.16674805 C1.89283369 3.92308938 0.46673031 2.54443788 -1 1 C-0.67 0.67 -0.34 0.34 0 0 Z " fill="#141515" transform="translate(653,389)"/>
<path d="M0 0 C-2.84454993 2.84454993 -6.20643307 3.30824038 -10 4.25 C-10.73734375 4.44851563 -11.4746875 4.64703125 -12.234375 4.8515625 C-14.13467642 5.33010556 -16.06748523 5.6751376 -18 6 C-18.66 5.34 -19.32 4.68 -20 4 C-18.25093469 3.35163958 -16.50070781 2.70641216 -14.75 2.0625 C-13.77546875 1.70285156 -12.8009375 1.34320313 -11.796875 0.97265625 C-7.28681599 -0.59578606 -4.69769383 -1.17442346 0 0 Z " fill="#111211" transform="translate(561,376)"/>
<path d="M0 0 C-0.33 0.66 -0.66 1.32 -1 2 C2.63 3.98 6.26 5.96 10 8 C10 8.99 10 9.98 10 11 C7.3725162 9.71319131 4.74803317 8.42082322 2.125 7.125 C1.37863281 6.76019531 0.63226562 6.39539063 -0.13671875 6.01953125 C-0.85214844 5.66503906 -1.56757812 5.31054688 -2.3046875 4.9453125 C-2.96452637 4.62062988 -3.62436523 4.29594727 -4.30419922 3.96142578 C-6 3 -6 3 -8 1 C-5.29120665 -0.35439668 -2.99066732 -0.06501451 0 0 Z " fill="#181918" transform="translate(1227,495)"/>
<path d="M0 0 C0.99 0.33 1.98 0.66 3 1 C-1.29 5.29 -5.58 9.58 -10 14 C-10.99 13.34 -11.98 12.68 -13 12 C-12.505 11.54625 -12.01 11.0925 -11.5 10.625 C-9.77390663 9.12364481 -9.77390663 9.12364481 -10 7 C-8.35 6.67 -6.7 6.34 -5 6 C-5 5.34 -5 4.68 -5 4 C-4.34 4 -3.68 4 -3 4 C-3 3.34 -3 2.68 -3 2 C-2.01 1.34 -1.02 0.68 0 0 Z " fill="#0D0E0D" transform="translate(464,614)"/>
<path d="M0 0 C4.2694274 3.37582631 7.5820056 6.77248061 11 11 C12.31543863 12.35099103 13.64175118 13.69205669 15 15 C12 15 12 15 10 14 C10 13.34 10 12.68 10 12 C9.34 12 8.68 12 8 12 C8 11.34 8 10.68 8 10 C7.195625 9.7525 6.39125 9.505 5.5625 9.25 C3 8 3 8 2.1875 5.875 C2.125625 5.25625 2.06375 4.6375 2 4 C1.34 4 0.68 4 0 4 C0 2.68 0 1.36 0 0 Z " fill="#141313" transform="translate(484,948)"/>
<path d="M0 0 C0.99 0.33 1.98 0.66 3 1 C2.09636719 1.83144531 1.19273437 2.66289063 0.26171875 3.51953125 C-0.92971816 4.61715423 -2.12112271 5.71481232 -3.3125 6.8125 C-4.20485352 7.63331055 -4.20485352 7.63331055 -5.11523438 8.47070312 C-5.69208984 9.00244141 -6.26894531 9.53417969 -6.86328125 10.08203125 C-7.65665894 10.81256714 -7.65665894 10.81256714 -8.46606445 11.55786133 C-10.0092835 13.00872793 -11.51015856 14.49453768 -13 16 C-13 14.35 -13 12.7 -13 11 C-12.071875 10.87625 -12.071875 10.87625 -11.125 10.75 C-8.32494581 9.76174558 -8.25886068 8.59640015 -7 6 C-4.875 4.75 -4.875 4.75 -3 4 C-3 3.34 -3 2.68 -3 2 C-2.01 1.34 -1.02 0.68 0 0 Z " fill="#171717" transform="translate(324,580)"/>
<path d="M0 0 C1.0625 1.75 1.0625 1.75 2 4 C1.6727341 5.33483554 1.33789561 6.66781554 1 8 C0.85225139 10.24240577 0.75255632 12.48816543 0.68359375 14.734375 C0.62075195 16.67763672 0.62075195 16.67763672 0.55664062 18.66015625 C0.51683329 20.02343476 0.47712094 21.38671606 0.4375 22.75 C0.39427726 24.12891875 0.35066179 25.50782526 0.30664062 26.88671875 C0.20056042 30.2577119 0.0985015 33.62877826 0 37 C-0.33 37 -0.66 37 -1 37 C-1.02479481 32.53426489 -1.04290486 28.0685667 -1.05493164 23.6027832 C-1.05994766 22.08487245 -1.06676203 20.5669665 -1.07543945 19.04907227 C-1.08762497 16.86212984 -1.09325572 14.67525154 -1.09765625 12.48828125 C-1.10289307 11.17384033 -1.10812988 9.85939941 -1.11352539 8.50512695 C-1.01677552 5.51794875 -0.70343764 2.89407389 0 0 Z " fill="#0D0D0D" transform="translate(451,488)"/>
<path d="M0 0 C3.16168368 1.43130275 5.62274483 3.17514138 8.25 5.4375 C8.95640625 6.03433594 9.6628125 6.63117188 10.390625 7.24609375 C12 9 12 9 12 12 C11.01 12 10.02 12 9 12 C9 11.01 9 10.02 9 9 C8.195625 8.731875 7.39125 8.46375 6.5625 8.1875 C5.716875 7.795625 4.87125 7.40375 4 7 C3.67 6.01 3.34 5.02 3 4 C2.34 4 1.68 4 1 4 C0.67 2.68 0.34 1.36 0 0 Z " fill="#1C1C1C" transform="translate(657,424)"/>
<path d="M0 0 C4.08596252 1.52763464 5.79826179 4.11084191 8.25 7.625 C8.95640625 8.62789063 9.6628125 9.63078125 10.390625 10.6640625 C11.18726563 11.82035156 11.18726563 11.82035156 12 13 C11.01 14.485 11.01 14.485 10 16 C9.16094435 14.87926138 8.32892169 13.75325453 7.5 12.625 C6.80390625 11.68527344 6.80390625 11.68527344 6.09375 10.7265625 C5 9 5 9 5 7 C4.34 7 3.68 7 3 7 C0 2.61538462 0 2.61538462 0 0 Z " fill="#1C1D1C" transform="translate(670,437)"/>
<path d="M0 0 C0.33 0.99 0.66 1.98 1 3 C0.2575 3.5775 -0.485 4.155 -1.25 4.75 C-3.66087643 6.72253526 -5.84042701 8.76044282 -8 11 C-8.99 10.67 -9.98 10.34 -11 10 C-7.84778899 5.58690458 -4.44536093 2.99206986 0 0 Z " fill="#141514" transform="translate(523,419)"/>
<path d="M0 0 C0.99 0.33 1.98 0.66 3 1 C-0.3810038 5.13621084 -3.66590534 8.81316569 -8 12 C-8 10.68 -8 9.36 -8 8 C-7.34 8 -6.68 8 -6 8 C-5.67 7.01 -5.34 6.02 -5 5 C-3.5625 3.3125 -3.5625 3.3125 -2 2 C-1.34 2 -0.68 2 0 2 C0 1.34 0 0.68 0 0 Z " fill="#232323" transform="translate(509,568)"/>
<path d="M0 0 C0.66 0.66 1.32 1.32 2 2 C0.93119777 3.34500955 -0.15562508 4.67571438 -1.25 6 C-1.85328125 6.7425 -2.4565625 7.485 -3.078125 8.25 C-5 10 -5 10 -9 10 C-8.06409496 8.8944811 -7.12620142 7.79064547 -6.1875 6.6875 C-5.66542969 6.07261719 -5.14335937 5.45773437 -4.60546875 4.82421875 C-3.12827531 3.14575321 -1.59960869 1.56117966 0 0 Z " fill="#080907" transform="translate(483,632)"/>
<path d="M0 0 C5.13659144 0.76097651 8.54314639 4.36120673 12 8 C11.67 8.99 11.34 9.98 11 11 C6.86378916 7.6189962 3.18683431 4.33409466 0 0 Z " fill="#232423" transform="translate(604,510)"/>
<path d="M0 0 C0.99 0.33 1.98 0.66 3 1 C-3.15034169 8.48291572 -3.15034169 8.48291572 -7 11 C-7.33 9.68 -7.66 8.36 -8 7 C-6.68 6.67 -5.36 6.34 -4 6 C-4 5.34 -4 4.68 -4 4 C-3.34 4 -2.68 4 -2 4 C-2 3.34 -2 2.68 -2 2 C-1.34 2 -0.68 2 0 2 C0 1.34 0 0.68 0 0 Z " fill="#202121" transform="translate(527,550)"/>
<path d="M0 0 C2.97 0.495 2.97 0.495 6 1 C6 1.66 6 2.32 6 3 C7.65 3 9.3 3 11 3 C11.33 4.32 11.66 5.64 12 7 C10.22739369 6.54857225 8.4569632 6.08859477 6.6875 5.625 C5.20830078 5.24214844 5.20830078 5.24214844 3.69921875 4.8515625 C1 4 1 4 -2 2 C-1.34 2 -0.68 2 0 2 C0 1.34 0 0.68 0 0 Z " fill="#232525" transform="translate(1197,485)"/>
<path d="M0 0 C0.66 0.33 1.32 0.66 2 1 C0.95199219 2.01320313 0.95199219 2.01320313 -0.1171875 3.046875 C-1.02726563 3.93890625 -1.93734375 4.8309375 -2.875 5.75 C-3.77992188 6.63171875 -4.68484375 7.5134375 -5.6171875 8.421875 C-7.64542996 10.61636684 -8.88880413 12.2667136 -10 15 C-11.32 14.67 -12.64 14.34 -14 14 C-9.38 9.38 -4.76 4.76 0 0 Z " fill="#282726" transform="translate(613,851)"/>
<path d="M0 0 C2.78211944 0.37596209 4.5879284 0.67318459 6.8125 2.4375 C8 4 8 4 8 6 C8.66 6 9.32 6 10 6 C10.33 6.99 10.66 7.98 11 9 C8 9 8 9 5.95703125 7.28515625 C5.24933594 6.55167969 4.54164063 5.81820312 3.8125 5.0625 C3.09707031 4.33160156 2.38164063 3.60070312 1.64453125 2.84765625 C0 1 0 1 0 0 Z " fill="#1F1F1F" transform="translate(630,536)"/>
<path d="M0 0 C1.27903133 3.83709399 0.50674062 5.30848548 -1 9 C-2.4375 11.375 -2.4375 11.375 -4 13 C-4.99 13 -5.98 13 -7 13 C-5.35821735 8.22390502 -2.73453298 4.20617096 0 0 Z " fill="#1D1E1E" transform="translate(2710,509)"/>
<path d="M0 0 C2.21399303 3.79541663 3.00980198 7.75629421 4 12 C0.74169271 9.82779514 -0.79292769 8.69024102 -1.9375 4.875 C-1.958125 3.92625 -1.97875 2.9775 -2 2 C-1.34 1.34 -0.68 0.68 0 0 Z " fill="#171716" transform="translate(975,631)"/>
<path d="M0 0 C0.66 0 1.32 0 2 0 C2 0.66 2 1.32 2 2 C2.66 2 3.32 2 4 2 C4.66 3.65 5.32 5.3 6 7 C1.545 6.01 1.545 6.01 -3 5 C-2.67 4.01 -2.34 3.02 -2 2 C-1.34 2 -0.68 2 0 2 C0 1.34 0 0.68 0 0 Z " fill="#242424" transform="translate(455,551)"/>
<path d="M0 0 C0.99 0.33 1.98 0.66 3 1 C1.71937515 2.7074998 0.38232443 4.37373596 -1 6 C-1.66 6 -2.32 6 -3 6 C-3.33 6.99 -3.66 7.98 -4 9 C-5.5 7.625 -5.5 7.625 -7 6 C-7 5.34 -7 4.68 -7 4 C-6.01 4 -5.02 4 -4 4 C-3.67 3.34 -3.34 2.68 -3 2 C-2.01 2 -1.02 2 0 2 C0 1.34 0 0.68 0 0 Z " fill="#1D1F1E" transform="translate(1392,530)"/>
<path d="M0 0 C-3.7935871 3.21880117 -7.65829477 5.6163187 -12 8 C-12 7.01 -12 6.02 -12 5 C-11.34 5 -10.68 5 -10 5 C-10 4.34 -10 3.68 -10 3 C-3.375 -1.125 -3.375 -1.125 0 0 Z " fill="#1E201F" transform="translate(1423,510)"/>
<path d="M0 0 C0.99 0.33 1.98 0.66 3 1 C3 3 3 3 1.1875 5.0625 C-1 7 -1 7 -4 8 C-5.68538601 9.99665314 -5.68538601 9.99665314 -7 12 C-7 8.19654123 -5.86213669 7.22298985 -3.5 4.3125 C-2.8503125 3.50425781 -2.200625 2.69601562 -1.53125 1.86328125 C-1.0259375 1.24839844 -0.520625 0.63351562 0 0 Z " fill="#181818" transform="translate(504,436)"/>
<path d="M0 0 C0.99 0.33 1.98 0.66 3 1 C-0.3 4.3 -3.6 7.6 -7 11 C-7.33 10.01 -7.66 9.02 -8 8 C-5.46209694 4.54563194 -3.56854354 2.37902903 0 0 Z " fill="#1A1C1B" transform="translate(497,406)"/>
<path d="M0 0 C1.65 0 3.3 0 5 0 C5 0.99 5 1.98 5 3 C0.05 5.475 0.05 5.475 -5 8 C-5.33 7.01 -5.66 6.02 -6 5 C-5.195625 4.731875 -4.39125 4.46375 -3.5625 4.1875 C-2.716875 3.795625 -1.87125 3.40375 -1 3 C-0.67 2.01 -0.34 1.02 0 0 Z " fill="#1E1F1F" transform="translate(345,563)"/>
<path d="M0 0 C0.66 0 1.32 0 2 0 C2 0.66 2 1.32 2 2 C2.66 2 3.32 2 4 2 C5.5625 4.8125 5.5625 4.8125 7 8 C6.67 8.99 6.34 9.98 6 11 C3.3513141 7.80331012 1.06007659 4.60513403 -1 1 C-0.67 0.67 -0.34 0.34 0 0 Z " fill="#151717" transform="translate(1265,530)"/>
<path d="M0 0 C0.66 0 1.32 0 2 0 C3.26237731 2.52475462 3.09856404 4.31200466 3.0625 7.125 C3.05347656 8.03507813 3.04445313 8.94515625 3.03515625 9.8828125 C3.02355469 10.58148437 3.01195312 11.28015625 3 12 C2.67 11.34 2.34 10.68 2 10 C1.34 10 0.68 10 0 10 C0 6.7 0 3.4 0 0 Z " fill="#272624" transform="translate(1158,765)"/>
<path d="M0 0 C0.33 1.32 0.66 2.64 1 4 C0.34 4 -0.32 4 -1 4 C-1.061875 4.721875 -1.12375 5.44375 -1.1875 6.1875 C-2.24456647 9.84657625 -4.20550071 11.49211602 -7 14 C-7 10.11708254 -5.62139506 8.53247465 -3.5 5.3125 C-2.8503125 4.31863281 -2.200625 3.32476563 -1.53125 2.30078125 C-0.77328125 1.16189453 -0.77328125 1.16189453 0 0 Z " fill="#171817" transform="translate(2631,630)"/>
<path d="M0 0 C2.6875 2.8125 2.6875 2.8125 5 6 C4.67 6.99 4.34 7.98 4 9 C2.85073734 8.04578192 1.70569459 7.08647955 0.5625 6.125 C-0.07558594 5.59132813 -0.71367188 5.05765625 -1.37109375 4.5078125 C-3 3 -3 3 -4 1 C-2 0 -2 0 0 0 Z " fill="#111111" transform="translate(539,614)"/>
<path d="M0 0 C1.32 0 2.64 0 4 0 C4 0.66 4 1.32 4 2 C4.66 2 5.32 2 6 2 C6 2.66 6 3.32 6 4 C7.32 4.66 8.64 5.32 10 6 C9.67 6.99 9.34 7.98 9 9 C7.87105124 8.06725891 6.74699124 7.12859878 5.625 6.1875 C4.99851562 5.66542969 4.37203125 5.14335938 3.7265625 4.60546875 C2 3 2 3 0 0 Z " fill="#222222" transform="translate(620,526)"/>
<path d="M0 0 C1.32 0.33 2.64 0.66 4 1 C3.04578192 2.14926266 2.08647955 3.29430541 1.125 4.4375 C0.59132813 5.07558594 0.05765625 5.71367187 -0.4921875 6.37109375 C-2 8 -2 8 -4 9 C-4.33 8.01 -4.66 7.02 -5 6 C-3.59554165 3.7363436 -1.8032087 1.9791315 0 0 Z " fill="#0B0D0C" transform="translate(581,494)"/>
<path d="M0 0 C0.99 0 1.98 0 3 0 C2.34 3.63 1.68 7.26 1 11 C0.01 11 -0.98 11 -2 11 C-1.85892253 9.54119891 -1.71197585 8.08296449 -1.5625 6.625 C-1.48128906 5.81289063 -1.40007812 5.00078125 -1.31640625 4.1640625 C-1 2 -1 2 0 0 Z " fill="#161716" transform="translate(455,470)"/>
<path d="M0 0 C2.44839588 3.67259383 4 6.54648201 4 11 C3.01 11.33 2.02 11.66 1 12 C0.63762737 10.37681021 0.28534843 8.7513642 -0.0625 7.125 C-0.25972656 6.22007812 -0.45695313 5.31515625 -0.66015625 4.3828125 C-1 2 -1 2 0 0 Z " fill="#1E1E1E" transform="translate(865,643)"/>
<path d="M0 0 C0.99 0 1.98 0 3 0 C3 0.66 3 1.32 3 2 C3.66 2 4.32 2 5 2 C5.33 3.32 5.66 4.64 6 6 C6.66 6 7.32 6 8 6 C7.67 7.32 7.34 8.64 7 10 C3.66442368 7.0094833 1.84916079 4.06815373 0 0 Z " fill="#161617" transform="translate(2456,490)"/>
<path d="M0 0 C3 1 3 1 4.203125 2.7421875 C4.54859375 3.44601562 4.8940625 4.14984375 5.25 4.875 C5.60578125 5.57367188 5.9615625 6.27234375 6.328125 6.9921875 C7 9 7 9 6 12 C3.25207517 8.59780735 0 4.51535412 0 0 Z " fill="#191A19" transform="translate(682,454)"/>
<path d="M0 0 C0.99 0.33 1.98 0.66 3 1 C1.70700306 3.88437779 0.34058637 5.87219421 -2 8 C-2.99 7.67 -3.98 7.34 -5 7 C-3.35 4.69 -1.7 2.38 0 0 Z " fill="#121110" transform="translate(673,790)"/>
<path d="M0 0 C0.59296875 0.34804688 1.1859375 0.69609375 1.796875 1.0546875 C0.55510805 1.75694891 -0.69698099 2.44097859 -1.953125 3.1171875 C-2.99726562 3.69146484 -2.99726562 3.69146484 -4.0625 4.27734375 C-6.56453128 5.1859281 -7.7363605 4.93805587 -10.203125 4.0546875 C-9.543125 3.7246875 -8.883125 3.3946875 -8.203125 3.0546875 C-8.203125 2.3946875 -8.203125 1.7346875 -8.203125 1.0546875 C-2.74543269 -1.17800481 -2.74543269 -1.17800481 0 0 Z " fill="#191B1A" transform="translate(1041.203125,493.9453125)"/>
<path d="M0 0 C-2.06756277 2.7972908 -3.14440371 3.02692273 -6.6875 3.6875 C-7.780625 3.790625 -8.87375 3.89375 -10 4 C-10.33 3.01 -10.66 2.02 -11 1 C-9.5437328 0.63743142 -8.08488815 0.28520207 -6.625 -0.0625 C-5.40683594 -0.35833984 -5.40683594 -0.35833984 -4.1640625 -0.66015625 C-2 -1 -2 -1 0 0 Z " fill="#1F201F" transform="translate(566,402)"/>
<path d="M0 0 C0 3.58912412 -0.66436554 4.10857029 -3 6.6875 C-3.556875 7.31011719 -4.11375 7.93273437 -4.6875 8.57421875 C-5.120625 9.04472656 -5.55375 9.51523437 -6 10 C-6.99 9.67 -7.98 9.34 -9 9 C-6.03 6.03 -3.06 3.06 0 0 Z " fill="#080808" transform="translate(536,579)"/>
<path d="M0 0 C0 1.32 0 2.64 0 4 C-3.63 3.01 -7.26 2.02 -11 1 C-6.8204355 -1.78637633 -4.85331323 -0.79562512 0 0 Z " fill="#242625" transform="translate(1619,489)"/>
<path d="M0 0 C1.32 0.33 2.64 0.66 4 1 C0.80331012 3.6486859 -2.39486597 5.93992341 -6 8 C-6 6.68 -6 5.36 -6 4 C-4.02 3.34 -2.04 2.68 0 2 C0 1.34 0 0.68 0 0 Z " fill="#1C1D1D" transform="translate(515,392)"/>
<path d="M0 0 C0.99 0.99 1.98 1.98 3 3 C0.69 5.31 -1.62 7.62 -4 10 C-4.66 9.34 -5.32 8.68 -6 8 C-5.195625 7.236875 -4.39125 6.47375 -3.5625 5.6875 C-0.83200976 3.20569102 -0.83200976 3.20569102 0 0 Z " fill="#0B0C0B" transform="translate(438,638)"/>
<path d="M0 0 C0.99 0.99 1.98 1.98 3 3 C2.79846293 5.84875378 1.85624823 8.25099253 1 11 C0.34 10.67 -0.32 10.34 -1 10 C-0.67 6.7 -0.34 3.4 0 0 Z " fill="#111312" transform="translate(723,518)"/>
<path d="M0 0 C0.33 0.66 0.66 1.32 1 2 C0.67 2.66 0.34 3.32 0 4 C-0.66 4 -1.32 4 -2 4 C-2 5.65 -2 7.3 -2 9 C-2.99 9 -3.98 9 -5 9 C-5 5 -5 5 -2.5 2.25 C-1.675 1.5075 -0.85 0.765 0 0 Z " fill="#111110" transform="translate(524,766)"/>
<path d="M0 0 C2.125 0.375 2.125 0.375 4 1 C2.1875 3.5 2.1875 3.5 0 6 C-0.99 6 -1.98 6 -3 6 C-2.42655063 3.13275314 -2.1385485 2.1385485 0 0 Z " fill="#191919" transform="translate(589,662)"/>
<path d="M0 0 C0.66 0.66 1.32 1.32 2 2 C-0.31 4.31 -2.62 6.62 -5 9 C-5.66 8.34 -6.32 7.68 -7 7 C-6.67 6.34 -6.34 5.68 -6 5 C-5.34 5 -4.68 5 -4 5 C-4 4.34 -4 3.68 -4 3 C-2 1.375 -2 1.375 0 0 Z " fill="#0E0F0E" transform="translate(429,649)"/>
<path d="M0 0 C0.99 0.33 1.98 0.66 3 1 C1.02 3.31 -0.96 5.62 -3 8 C-3.99 7.67 -4.98 7.34 -6 7 C-6 6.34 -6 5.68 -6 5 C-4.34467377 3.98133771 -2.67739862 2.98189187 -1 2 C-0.67 1.34 -0.34 0.68 0 0 Z " fill="#0C0C0C" transform="translate(635,616)"/>
<path d="M0 0 C3.59905908 0.55550695 4.99909799 1.74887248 7.25 4.5625 C8.03117188 5.52349609 8.03117188 5.52349609 8.828125 6.50390625 C9.21484375 6.99761719 9.6015625 7.49132812 10 8 C8.68 8 7.36 8 6 8 C6 7.01 6 6.02 6 5 C4.68 4.34 3.36 3.68 2 3 C2 2.34 2 1.68 2 1 C1.34 0.67 0.68 0.34 0 0 Z " fill="#070808" transform="translate(594,537)"/>
<path d="M0 0 C2.375 0.1875 2.375 0.1875 5 1 C6.3125 3.5625 6.3125 3.5625 7 6 C4 6 4 6 1.8125 4.125 C0 2 0 2 0 0 Z " fill="#232323" transform="translate(681,411)"/>
<path d="M0 0 C4.95 0.99 4.95 0.99 10 2 C8 4 8 4 5 4.1875 C2 4 2 4 0 3 C0 2.01 0 1.02 0 0 Z " fill="#171817" transform="translate(601,372)"/>
<path d="M0 0 C0.33 0 0.66 0 1 0 C1.28571429 7.42857143 1.28571429 7.42857143 -1 11 C-3 9 -3 9 -3.125 5.875 C-3.08375 4.92625 -3.0425 3.9775 -3 3 C-2.34 3 -1.68 3 -1 3 C-0.67 2.01 -0.34 1.02 0 0 Z " fill="#2D2D2D" transform="translate(1617,698)"/>
<path d="M0 0 C2.475 0.99 2.475 0.99 5 2 C4.67 2.99 4.34 3.98 4 5 C5.32 5.33 6.64 5.66 8 6 C7.01 6.66 6.02 7.32 5 8 C3.02 5.69 1.04 3.38 -1 1 C-0.67 0.67 -0.34 0.34 0 0 Z " fill="#E2E2E2" transform="translate(639,577)"/>
<path d="M0 0 C6.875 3.75 6.875 3.75 8 6 C7.34 6.66 6.68 7.32 6 8 C4 6.625 4 6.625 2 5 C2 4.34 2 3.68 2 3 C1.01 2.67 0.02 2.34 -1 2 C-0.67 1.34 -0.34 0.68 0 0 Z " fill="#161717" transform="translate(648,417)"/>
<path d="M0 0 C0.66 0.33 1.32 0.66 2 1 C-0.1875 3.5625 -0.1875 3.5625 -3 6 C-5.8125 5.8125 -5.8125 5.8125 -8 5 C-5.45378681 2.99940392 -3.01962385 1.20784954 0 0 Z " fill="#191B19" transform="translate(654,978)"/>
<path d="M0 0 C2.1640625 0.0234375 2.1640625 0.0234375 4.625 0.375 C5.85089844 0.54128906 5.85089844 0.54128906 7.1015625 0.7109375 C7.72804688 0.80632813 8.35453125 0.90171875 9 1 C8.01 1.495 8.01 1.495 7 2 C7 2.66 7 3.32 7 4 C3.97580475 3.41196203 0.98241547 2.77321882 -2 2 C-1.34 1.34 -0.68 0.68 0 0 Z " fill="#0E0F0F" transform="translate(782,576)"/>
<path d="M0 0 C1 3 1 3 0 6 C-0.66 6 -1.32 6 -2 6 C-1.67 6.99 -1.34 7.98 -1 9 C-2.65 9.33 -4.3 9.66 -6 10 C-4.02 6.7 -2.04 3.4 0 0 Z " fill="#171918" transform="translate(2686,546)"/>
<path d="M0 0 C-2.97 2.475 -2.97 2.475 -6 5 C-6.66 4.67 -7.32 4.34 -8 4 C-8 3.34 -8 2.68 -8 2 C-7.34 2 -6.68 2 -6 2 C-6 1.34 -6 0.68 -6 0 C-3.50907189 -1.24546405 -2.58919267 -0.7767578 0 0 Z " fill="#1E1F1E" transform="translate(1387,540)"/>
<path d="M0 0 C0.33 0.66 0.66 1.32 1 2 C1.639375 1.814375 2.27875 1.62875 2.9375 1.4375 C3.9584375 1.2209375 3.9584375 1.2209375 5 1 C5.33 1.33 5.66 1.66 6 2 C6.66 2.33 7.32 2.66 8 3 C7.67 3.99 7.34 4.98 7 6 C4.03 5.01 1.06 4.02 -2 3 C-1.34 2.67 -0.68 2.34 0 2 C0 1.34 0 0.68 0 0 Z " fill="#1C1E1E" transform="translate(1629,494)"/>
<path d="M0 0 C1.98 0 3.96 0 6 0 C6 0.99 6 1.98 6 3 C2.04 3 -1.92 3 -6 3 C-6 2.67 -6 2.34 -6 2 C-4.02 1.67 -2.04 1.34 0 1 C0 0.67 0 0.34 0 0 Z " fill="#0A0C0A" transform="translate(1555,476)"/>
<path d="M0 0 C0.66 0 1.32 0 2 0 C1.34 2.97 0.68 5.94 0 9 C-0.99 9 -1.98 9 -3 9 C-2.44271087 5.65626525 -1.64826111 2.96687001 0 0 Z " fill="#171717" transform="translate(459,460)"/>
<path d="M0 0 C0 3.69418201 -1.28179295 5.77836178 -3 9 C-4.32 8.34 -5.64 7.68 -7 7 C-4.69 4.69 -2.38 2.38 0 0 Z " fill="#121212" transform="translate(685,954)"/>
<path d="M0 0 C0 0.66 0 1.32 0 2 C-4.455 3.485 -4.455 3.485 -9 5 C-8 2 -8 2 -6.1875 0.8125 C-4 0 -4 0 0 0 Z " fill="#111413" transform="translate(1456,492)"/>
<path d="M0 0 C-0.66 0.66 -1.32 1.32 -2 2 C-2.66 1.67 -3.32 1.34 -4 1 C-4 1.66 -4 2.32 -4 3 C-5.98 3.66 -7.96 4.32 -10 5 C-9.875 3.125 -9.875 3.125 -9 1 C-5.3931275 -0.64661571 -3.8148779 -1.27162597 0 0 Z " fill="#242625" transform="translate(555,405)"/>
<path d="M0 0 C1.98 1.65 3.96 3.3 6 5 C5.67 5.99 5.34 6.98 5 8 C4.34 8 3.68 8 3 8 C2.67 6.68 2.34 5.36 2 4 C1.34 4 0.68 4 0 4 C0 2.68 0 1.36 0 0 Z " fill="#201F1E" transform="translate(484,948)"/>
<path d="M0 0 C0.33 2.31 0.66 4.62 1 7 C0.01 7 -0.98 7 -2 7 C-2.66 5.68 -3.32 4.36 -4 3 C-1.125 0 -1.125 0 0 0 Z " fill="#101211" transform="translate(522,594)"/>
<path d="M0 0 C0.33 1.32 0.66 2.64 1 4 C0.34 4 -0.32 4 -1 4 C-1.33 4.66 -1.66 5.32 -2 6 C-3.64363134 6.72159424 -5.31050386 7.39351421 -7 8 C-6.02133662 6.85373678 -5.04205413 5.70800212 -4.0625 4.5625 C-3.51722656 3.92441406 -2.97195313 3.28632812 -2.41015625 2.62890625 C-1.63204305 1.73008851 -0.84063472 0.84063472 0 0 Z " fill="#0D0E0D" transform="translate(451,664)"/>
<path d="M0 0 C3.465 1.98 3.465 1.98 7 4 C6.67 4.66 6.34 5.32 6 6 C5.01 6 4.02 6 3 6 C3 5.34 3 4.68 3 4 C1.68 3.67 0.36 3.34 -1 3 C-0.67 2.01 -0.34 1.02 0 0 Z " fill="#121212" transform="translate(823,592)"/>
<path d="M0 0 C0.66 0.66 1.32 1.32 2 2 C0.02 4.97 0.02 4.97 -2 8 C-2.99 7.34 -3.98 6.68 -5 6 C-3.625 4 -3.625 4 -2 2 C-1.34 2 -0.68 2 0 2 C0 1.34 0 0.68 0 0 Z " fill="#1A1D1C" transform="translate(1372,552)"/>
<path d="M0 0 C0.66 0.66 1.32 1.32 2 2 C0.25 4 0.25 4 -2 6 C-3.32 6 -4.64 6 -6 6 C-6 5.34 -6 4.68 -6 4 C-4.03852126 2.61061923 -2.03833424 1.2739589 0 0 Z " fill="#191B19" transform="translate(1403,521)"/>
<path d="M0 0 C0.99 0.33 1.98 0.66 3 1 C2.01 2.98 1.02 4.96 0 7 C-0.99 6.67 -1.98 6.34 -3 6 C-2 4 -1 2 0 0 Z " fill="#121413" transform="translate(2560,517)"/>
<path d="M0 0 C0.66 0.66 1.32 1.32 2 2 C-0.97 4.475 -0.97 4.475 -4 7 C-4 4 -4 4 -3 1 C-2.01 0.67 -1.02 0.34 0 0 Z " fill="#131414" transform="translate(1004,517)"/>
<path d="M0 0 C1.32 0 2.64 0 4 0 C4 0.66 4 1.32 4 2 C4.99 2 5.98 2 7 2 C6.67 3.32 6.34 4.64 6 6 C3.97945196 4.35830472 1.97956942 2.69088222 0 1 C0 0.67 0 0.34 0 0 Z " fill="#1B1E1E" transform="translate(1250,516)"/>
<path d="M0 0 C0 0.66 0 1.32 0 2 C-3.69541586 2.95024979 -6.30458414 2.95024979 -10 2 C-6.3558226 -0.4294516 -4.28758728 -0.16179575 0 0 Z " fill="#171817" transform="translate(1604,484)"/>
<path d="M0 0 C1.32 0 2.64 0 4 0 C4.66 2.31 5.32 4.62 6 7 C5.01 7 4.02 7 3 7 C2.01 4.69 1.02 2.38 0 0 Z " fill="#121312" transform="translate(707,446)"/>
<path d="M0 0 C0.33 0.99 0.66 1.98 1 3 C-2.3 3 -5.6 3 -9 3 C-4.5 -0.375 -4.5 -0.375 0 0 Z " fill="#0C0E0C" transform="translate(578,372)"/>
<path d="M0 0 C-3.465 1.485 -3.465 1.485 -7 3 C-7.33 2.34 -7.66 1.68 -8 1 C-7 -1 -7 -1 -5.125 -1.75 C-3 -2 -3 -2 0 0 Z " fill="#131513" transform="translate(816,783)"/>
<path d="M0 0 C0.66 0.33 1.32 0.66 2 1 C0.60667426 4.36720387 -0.9789286 5.9859524 -4 8 C-3.67 6.35 -3.34 4.7 -3 3 C-2.01 3 -1.02 3 0 3 C0 2.01 0 1.02 0 0 Z " fill="#202221" transform="translate(1596,748)"/>
<path d="M0 0 C1.98 1.65 3.96 3.3 6 5 C5.67 5.66 5.34 6.32 5 7 C4.34 7 3.68 7 3 7 C3 6.34 3 5.68 3 5 C2.01 4.67 1.02 4.34 0 4 C0 2.68 0 1.36 0 0 Z " fill="#0A0A09" transform="translate(398,687)"/>
<path d="M0 0 C0.33 0.66 0.66 1.32 1 2 C0.67 2.99 0.34 3.98 0 5 C0.66 5 1.32 5 2 5 C1.67 5.99 1.34 6.98 1 8 C-0.32 7.01 -1.64 6.02 -3 5 C-1.125 1.125 -1.125 1.125 0 0 Z " fill="#CFD0CF" transform="translate(400,681)"/>
<path d="M0 0 C0.33 0.99 0.66 1.98 1 3 C-0.65 4.65 -2.3 6.3 -4 8 C-4.99 7.67 -5.98 7.34 -7 7 C-4.69 4.69 -2.38 2.38 0 0 Z " fill="#0D0D0C" transform="translate(459,656)"/>
<path d="M0 0 C0.99 0 1.98 0 3 0 C3 0.66 3 1.32 3 2 C3.99 2 4.98 2 6 2 C6 2.99 6 3.98 6 5 C3.69 4.34 1.38 3.68 -1 3 C-0.67 2.01 -0.34 1.02 0 0 Z " fill="#1C1D1D" transform="translate(1197,648)"/>
<path d="M0 0 C1.32 0.66 2.64 1.32 4 2 C3.34 3.32 2.68 4.64 2 6 C1.01 6 0.02 6 -1 6 C-0.67 4.02 -0.34 2.04 0 0 Z " fill="#161616" transform="translate(479,595)"/>
<path d="M0 0 C1.32 0.33 2.64 0.66 4 1 C2.35830472 3.02054804 0.69088222 5.02043058 -1 7 C-1.33 7 -1.66 7 -2 7 C-2 5.35 -2 3.7 -2 2 C-1.34 2 -0.68 2 0 2 C0 1.34 0 0.68 0 0 Z " fill="#1A1A1A" transform="translate(307,596)"/>
<path d="M0 0 C1.27351308 2.54702616 0.80191925 3.4282945 0.0625 6.125 C-0.13214844 6.84945312 -0.32679688 7.57390625 -0.52734375 8.3203125 C-0.68332031 8.87460937 -0.83929687 9.42890625 -1 10 C-1.33 10 -1.66 10 -2 10 C-2.33 7.03 -2.66 4.06 -3 1 C-2.01 0.67 -1.02 0.34 0 0 Z " fill="#272827" transform="translate(976,567)"/>
<path d="M0 0 C3.36720387 1.39332574 4.9859524 2.9789286 7 6 C6.01 6.33 5.02 6.66 4 7 C2.35 5.02 0.7 3.04 -1 1 C-0.67 0.67 -0.34 0.34 0 0 Z " fill="#E1E2E2" transform="translate(623,561)"/>
<path d="M0 0 C0.99 0.33 1.98 0.66 3 1 C2.01 2.98 1.02 4.96 0 7 C-0.66 6.34 -1.32 5.68 -2 5 C-1.46428571 1.46428571 -1.46428571 1.46428571 0 0 Z " fill="#0D0E0E" transform="translate(1365,560)"/>
<path d="M0 0 C0.99 0.33 1.98 0.66 3 1 C1.35 2.98 -0.3 4.96 -2 7 C-2.66 6.67 -3.32 6.34 -4 6 C-4 4 -4 4 -2 1.875 C-1.34 1.25625 -0.68 0.6375 0 0 Z " fill="#282828" transform="translate(539,538)"/>
<path d="M0 0 C0.99 0.33 1.98 0.66 3 1 C1.35 2.65 -0.3 4.3 -2 6 C-2.33 5.01 -2.66 4.02 -3 3 C-2.01 2.01 -1.02 1.02 0 0 Z " fill="#252625" transform="translate(547,530)"/>
<path d="M0 0 C-0.33 0.99 -0.66 1.98 -1 3 C-2.65 3.33 -4.3 3.66 -6 4 C-6.33 3.01 -6.66 2.02 -7 1 C-4 0 -4 0 0 0 Z " fill="#0B0D0C" transform="translate(1485,482)"/>
<path d="M0 0 C1.65 0.33 3.3 0.66 5 1 C5.33 2.32 5.66 3.64 6 5 C3.36 4.34 0.72 3.68 -2 3 C-1.34 2.67 -0.68 2.34 0 2 C0 1.34 0 0.68 0 0 Z " fill="#2C2D2C" transform="translate(629,378)"/>
<path d="M0 0 C0.66 0.33 1.32 0.66 2 1 C1.875 2.8125 1.875 2.8125 1 5 C-2.0625 6.75 -2.0625 6.75 -5 8 C-3.62845496 5.04590299 -2.01136276 2.55991624 0 0 Z " fill="#1C1C1B" transform="translate(694,943)"/>
<path d="M0 0 C-0.33 1.32 -0.66 2.64 -1 4 C-3.31 3.67 -5.62 3.34 -8 3 C-4.93882432 0.37613513 -4.26826873 0 0 0 Z " fill="#E0E0DF" transform="translate(1486,881)"/>
<path d="M0 0 C2.00720923 0.28674418 4.0085944 0.61866701 6 1 C6 2.32 6 3.64 6 5 C3.08482708 3.92598892 1.22189824 3.22189824 -1 1 C-0.67 0.67 -0.34 0.34 0 0 Z " fill="#181919" transform="translate(825,563)"/>
<path d="M0 0 C0.66 0 1.32 0 2 0 C2.185625 0.9590625 2.185625 0.9590625 2.375 1.9375 C2.684375 2.9584375 2.684375 2.9584375 3 4 C3.66 4.33 4.32 4.66 5 5 C4.34 5 3.68 5 3 5 C2.67 5.66 2.34 6.32 2 7 C0.4375 5.1875 0.4375 5.1875 -1 3 C-0.67 2.01 -0.34 1.02 0 0 Z " fill="#1A1B1B" transform="translate(2507,562)"/>
<path d="M0 0 C0.66 0.99 1.32 1.98 2 3 C1.67 3.66 1.34 4.32 1 5 C2.32 5.33 3.64 5.66 5 6 C2.69 6.66 0.38 7.32 -2 8 C-1.34 5.36 -0.68 2.72 0 0 Z " fill="#373838" transform="translate(716,551)"/>
<path d="M0 0 C-2.05233685 2.2477975 -3.00667261 3.0022242 -6 4 C-6.33 3.01 -6.66 2.02 -7 1 C-3.375 -1.125 -3.375 -1.125 0 0 Z " fill="#131514" transform="translate(1030,500)"/>
<path d="M0 0 C0.99 0 1.98 0 3 0 C3.33 0.99 3.66 1.98 4 3 C2.02 3.66 0.04 4.32 -2 5 C-2 4.01 -2 3.02 -2 2 C-1.34 2 -0.68 2 0 2 C0 1.34 0 0.68 0 0 Z " fill="#191B1A" transform="translate(1443,495)"/>
<path d="M0 0 C0.66 0.99 1.32 1.98 2 3 C1.01 4.98 0.02 6.96 -1 9 C-1.66 8.01 -2.32 7.02 -3 6 C-2.01 4.02 -1.02 2.04 0 0 Z " fill="#131413" transform="translate(2576,490)"/>
<path d="M0 0 C1.65 0 3.3 0 5 0 C5.33 0.99 5.66 1.98 6 3 C4.35 3.33 2.7 3.66 1 4 C0.67 2.68 0.34 1.36 0 0 Z " fill="#111512" transform="translate(1059,484)"/>
<path d="M0 0 C2.62187494 1.04874998 3.79371361 1.64931313 5.25 4.125 C5.4975 4.74375 5.745 5.3625 6 6 C5.01 6.33 4.02 6.66 3 7 C0 2.25 0 2.25 0 0 Z " fill="#141514" transform="translate(670,437)"/>
<path d="M0 0 C0.33 0 0.66 0 1 0 C1.3125 2.3125 1.3125 2.3125 1 5 C-1.375 6.875 -1.375 6.875 -4 8 C-4.66 7.67 -5.32 7.34 -6 7 C-5.02433888 5.83040013 -4.044375 4.66438823 -3.0625 3.5 C-2.51722656 2.8503125 -1.97195313 2.200625 -1.41015625 1.53125 C-0.71212891 0.77328125 -0.71212891 0.77328125 0 0 Z " fill="#1C1C1B" transform="translate(1697,821)"/>
<path d="M0 0 C1.485 0.99 1.485 0.99 3 2 C3 2.66 3 3.32 3 4 C3.99 4 4.98 4 6 4 C5.67 4.99 5.34 5.98 5 7 C3.02 5.35 1.04 3.7 -1 2 C-0.67 1.34 -0.34 0.68 0 0 Z " fill="#181919" transform="translate(1482,751)"/>
<path d="M0 0 C0.33 0.99 0.66 1.98 1 3 C-0.65 4.32 -2.3 5.64 -4 7 C-4 4 -4 4 -2 1.8125 C-1.34 1.214375 -0.68 0.61625 0 0 Z " fill="#0A0B0B" transform="translate(599,653)"/>
<path d="M0 0 C1.32 1.32 2.64 2.64 4 4 C2.68 4.33 1.36 4.66 0 5 C-0.66 4.01 -1.32 3.02 -2 2 C-1.34 1.34 -0.68 0.68 0 0 Z " fill="#141313" transform="translate(538,653)"/>
<path d="M0 0 C0.625 1.875 0.625 1.875 1 4 C0.34 4.66 -0.32 5.32 -1 6 C-1.99 6 -2.98 6 -4 6 C-2.84826645 3.53199953 -1.95216435 1.95216435 0 0 Z " fill="#0C0C0A" transform="translate(469,646)"/>
<path d="M0 0 C0.99 0.33 1.98 0.66 3 1 C0.03 3.475 0.03 3.475 -3 6 C-3.33 5.34 -3.66 4.68 -4 4 C-2.68 2.68 -1.36 1.36 0 0 Z " fill="#090A0A" transform="translate(616,636)"/>
<path d="M0 0 C1 2 1 2 0.375 4.0625 C-1 6 -1 6 -3.625 6.75 C-4.800625 6.87375 -4.800625 6.87375 -6 7 C-4.02 4.69 -2.04 2.38 0 0 Z " fill="#242524" transform="translate(334,606)"/>
<path d="M0 0 C0.33 0.99 0.66 1.98 1 3 C0.34 3 -0.32 3 -1 3 C-1 3.66 -1 4.32 -1 5 C-1.66 5 -2.32 5 -3 5 C-3 5.66 -3 6.32 -3 7 C-3.66 7 -4.32 7 -5 7 C-3.75023244 3.34683329 -3.32901247 2.21934164 0 0 Z " fill="#1D1E1D" transform="translate(1113,579)"/>
<path d="M0 0 C0.66 0.33 1.32 0.66 2 1 C1.6875 2.875 1.6875 2.875 1 5 C0.01 5.66 -0.98 6.32 -2 7 C-2 5.68 -2 4.36 -2 3 C-1.34 3 -0.68 3 0 3 C0 2.01 0 1.02 0 0 Z " fill="#181818" transform="translate(503,573)"/>
<path d="M0 0 C0.66 0 1.32 0 2 0 C2 0.66 2 1.32 2 2 C2.99 1.67 3.98 1.34 5 1 C4.67 2.65 4.34 4.3 4 6 C2 4.6875 2 4.6875 0 3 C0 2.01 0 1.02 0 0 Z " fill="#D9D9D9" transform="translate(596,534)"/>
<path d="M0 0 C-0.66 1.32 -1.32 2.64 -2 4 C-3.65 3.01 -5.3 2.02 -7 1 C-3.375 -1.125 -3.375 -1.125 0 0 Z " fill="#141615" transform="translate(1673,518)"/>
<path d="M0 0 C-2.63904371 1.41377341 -5.07120629 2.37240135 -8 3 C-8 2.01 -8 1.02 -8 0 C-5.13822943 -1.43088528 -3.06624227 -0.59991697 0 0 Z " fill="#101311" transform="translate(1474,487)"/>
<path d="M0 0 C0 0.66 0 1.32 0 2 C-3.57644848 3.2380014 -6.33694766 2.74926071 -10 2 C-10 1.67 -10 1.34 -10 1 C-6.59437148 0.22157062 -3.49234244 -0.09978121 0 0 Z " fill="#1F201F" transform="translate(1193,483)"/>
<path d="M0 0 C0.66 0.66 1.32 1.32 2 2 C0.02 3.32 -1.96 4.64 -4 6 C-4.33 5.34 -4.66 4.68 -5 4 C-3 1 -3 1 0 0 Z " fill="#1C1D1C" transform="translate(505,400)"/>
</svg>
